<svg width="86" height="14" viewBox="0 0 86 14" fill="none" xmlns="http://www.w3.org/2000/svg">
<g id="txt">
<mask id="path-1-outside-1" maskUnits="userSpaceOnUse" x="0.253418" y="-0.530029" width="86" height="15" fill="black">
<rect fill="white" x="0.253418" y="-0.530029" width="86" height="15"/>
<path d="M1.4982 4.99997V0.705908H2.71033C3.0839 0.705908 3.41421 0.788486 3.70127 0.953643C3.98833 1.1188 4.20952 1.35375 4.36484 1.65851C4.52214 1.96326 4.60176 2.31323 4.60373 2.70843V2.98271C4.60373 3.38773 4.52508 3.74262 4.36779 4.04737C4.21247 4.35213 3.98931 4.5861 3.69832 4.74929C3.4093 4.91248 3.0721 4.99604 2.68674 4.99997H1.4982ZM2.06445 1.17188V4.53694H2.6602C3.09668 4.53694 3.43584 4.40128 3.67768 4.12995C3.92148 3.85862 4.04338 3.47228 4.04338 2.97091V2.72022C4.04338 2.23262 3.92836 1.85414 3.69832 1.58478C3.47025 1.31345 3.14583 1.17582 2.72508 1.17188H2.06445Z"/>
<path d="M6.43319 4.55464H8.30005V4.99997H5.76667V4.59888L7.52735 2.26015H5.79321V1.80892H8.21157V2.19526L6.43319 4.55464Z"/>
<path d="M10.0528 4.99997H9.50722V1.80892H10.0528V4.99997ZM9.46298 0.96249C9.46298 0.874014 9.48952 0.7993 9.54261 0.73835C9.59766 0.677399 9.67827 0.646924 9.78445 0.646924C9.89062 0.646924 9.97123 0.677399 10.0263 0.73835C10.0813 0.7993 10.1089 0.874014 10.1089 0.96249C10.1089 1.05097 10.0813 1.1247 10.0263 1.18368C9.97123 1.24267 9.89062 1.27216 9.78445 1.27216C9.67827 1.27216 9.59766 1.24267 9.54261 1.18368C9.48952 1.1247 9.46298 1.05097 9.46298 0.96249Z"/>
<path d="M13.9998 4.44257C13.8602 4.65884 13.6774 4.82007 13.4513 4.92624H13.4542L13.2832 5.05896C13.061 5.23787 12.9499 5.41188 12.9499 5.58097C12.9499 5.72253 13.0266 5.79331 13.1799 5.79331C13.2743 5.79331 13.3726 5.76775 13.4749 5.71663L13.5132 6.07349C13.3756 6.16 13.2183 6.20325 13.0413 6.20325C12.8663 6.20325 12.7277 6.15213 12.6255 6.04989C12.5252 5.94765 12.4751 5.81199 12.4751 5.6429C12.4751 5.43056 12.5714 5.23591 12.7641 5.05896C12.3355 5.05109 11.9894 4.9056 11.726 4.62247C11.4645 4.33738 11.3337 3.95988 11.3337 3.48997V3.39265C11.3337 3.0761 11.3937 2.79396 11.5136 2.54622C11.6355 2.29652 11.8046 2.10187 12.0209 1.96228C12.2391 1.82071 12.4751 1.74993 12.7287 1.74993C13.1436 1.74993 13.466 1.88658 13.6961 2.15987C13.9261 2.43317 14.0411 2.82443 14.0411 3.33366V3.56075H11.8793C11.8872 3.87534 11.9786 4.12995 12.1536 4.3246C12.3306 4.51728 12.5547 4.61362 12.826 4.61362C13.0187 4.61362 13.1819 4.5743 13.3156 4.49565C13.4493 4.41701 13.5663 4.3128 13.6666 4.18304L13.9998 4.44257ZM12.7287 2.19821C12.5085 2.19821 12.3237 2.27882 12.1743 2.44005C12.0248 2.59931 11.9324 2.82345 11.897 3.11247H13.4955V3.07118C13.4798 2.79395 13.4051 2.57965 13.2714 2.42825C13.1377 2.27489 12.9568 2.19821 12.7287 2.19821Z"/>
<path d="M16.1095 3.52241L15.7673 3.87927V4.99997H15.2217V0.469971H15.7673V3.20979L16.0593 2.85884L17.0532 1.80892H17.7168L16.4752 3.14196L17.8613 4.99997H17.2213L16.1095 3.52241Z"/>
<path d="M20.7938 4.6844C20.5814 4.9341 20.2698 5.05896 19.8589 5.05896C19.5187 5.05896 19.2592 4.96065 19.0803 4.76403C18.9033 4.56545 18.8139 4.2725 18.8119 3.88517V1.80892H19.3575V3.87042C19.3575 4.35409 19.5541 4.59593 19.9473 4.59593C20.3642 4.59593 20.6414 4.4406 20.779 4.12995V1.80892H21.3246V4.99997H20.8056L20.7938 4.6844Z"/>
<path d="M23.2632 1.80892V5.36862C23.2632 5.98206 22.985 6.28878 22.4286 6.28878C22.3086 6.28878 22.1976 6.27108 22.0953 6.23569V5.79921C22.1582 5.81494 22.2408 5.8228 22.343 5.8228C22.4649 5.8228 22.5574 5.78938 22.6203 5.72253C22.6852 5.65765 22.7176 5.54361 22.7176 5.38042V1.80892H23.2632ZM22.6616 0.96249C22.6616 0.87598 22.6881 0.802249 22.7412 0.741299C22.7962 0.678382 22.8759 0.646924 22.9801 0.646924C23.0862 0.646924 23.1669 0.677399 23.2219 0.73835C23.277 0.7993 23.3045 0.874014 23.3045 0.96249C23.3045 1.05097 23.277 1.1247 23.2219 1.18368C23.1669 1.24267 23.0862 1.27216 22.9801 1.27216C22.8739 1.27216 22.7943 1.24267 22.7412 1.18368C22.6881 1.1247 22.6616 1.05097 22.6616 0.96249Z"/>
<path d="M26.0128 5.05896C25.5803 5.05896 25.2283 4.91739 24.957 4.63427C24.6857 4.34918 24.55 3.96873 24.55 3.49292V3.39265C24.55 3.0761 24.61 2.79396 24.7299 2.54622C24.8518 2.29652 25.0209 2.10187 25.2372 1.96228C25.4554 1.82071 25.6914 1.74993 25.945 1.74993C26.3598 1.74993 26.6823 1.88658 26.9123 2.15987C27.1424 2.43317 27.2574 2.82443 27.2574 3.33366V3.56075H25.0956C25.1035 3.87534 25.1949 4.12995 25.3699 4.3246C25.5468 4.51728 25.771 4.61362 26.0423 4.61362C26.235 4.61362 26.3982 4.5743 26.5319 4.49565C26.6656 4.41701 26.7826 4.3128 26.8828 4.18304L27.2161 4.44257C26.9487 4.85349 26.5476 5.05896 26.0128 5.05896ZM25.945 2.19821C25.7248 2.19821 25.54 2.27882 25.3905 2.44005C25.2411 2.59931 25.1487 2.82345 25.1133 3.11247H26.7118V3.07118C26.6961 2.79395 26.6213 2.57965 26.4876 2.42825C26.3539 2.27489 26.1731 2.19821 25.945 2.19821Z"/>
<path d="M28.9482 1.80892L28.963 2.16282C29.197 1.88756 29.5125 1.74993 29.9097 1.74993C30.356 1.74993 30.6598 1.92099 30.821 2.2631C30.9272 2.10974 31.0648 1.98587 31.2339 1.89149C31.4049 1.79712 31.6065 1.74993 31.8385 1.74993C32.5384 1.74993 32.8943 2.12055 32.9061 2.86179V4.99997H32.3605V2.89423C32.3605 2.66616 32.3084 2.49608 32.2042 2.38401C32.1 2.26998 31.925 2.21296 31.6792 2.21296C31.4767 2.21296 31.3086 2.27391 31.1749 2.39581C31.0412 2.51575 30.9635 2.67795 30.9419 2.88243V4.99997H30.3934V2.90897C30.3934 2.44496 30.1663 2.21296 29.7121 2.21296C29.3542 2.21296 29.1095 2.36534 28.9777 2.67009V4.99997H28.4321V1.80892H28.9482Z"/>
<path d="M35.3195 4.20073L36.0627 1.80892H36.6466L35.3637 5.49249C35.1651 6.02335 34.8496 6.28878 34.417 6.28878L34.3138 6.27993L34.1103 6.24159V5.79921L34.2578 5.81101C34.4426 5.81101 34.5861 5.77365 34.6884 5.69894C34.7926 5.62422 34.8781 5.48758 34.9449 5.28899L35.0659 4.96458L33.9275 1.80892H34.5232L35.3195 4.20073Z"/>
<path d="M40.2348 4.55464H42.1016V4.99997H39.5683V4.59888L41.3289 2.26015H39.5948V1.80892H42.0132V2.19526L40.2348 4.55464Z"/>
<path d="M45.2317 4.99997C45.2002 4.93705 45.1747 4.82498 45.155 4.66376C44.9014 4.92722 44.5986 5.05896 44.2467 5.05896C43.9321 5.05896 43.6735 4.97048 43.471 4.79353C43.2705 4.61461 43.1702 4.3885 43.1702 4.11521C43.1702 3.78293 43.296 3.52536 43.5477 3.34251C43.8013 3.15769 44.1572 3.06528 44.6153 3.06528H45.1462V2.8146C45.1462 2.62388 45.0891 2.47249 44.9751 2.36042C44.8611 2.24638 44.693 2.18937 44.4708 2.18937C44.2762 2.18937 44.113 2.23852 43.9812 2.33683C43.8495 2.43513 43.7836 2.55409 43.7836 2.69368H43.2351C43.2351 2.53442 43.2911 2.38106 43.4032 2.2336C43.5172 2.08418 43.6706 1.96621 43.8633 1.8797C44.0579 1.79319 44.2712 1.74993 44.5032 1.74993C44.8709 1.74993 45.1589 1.84234 45.3674 2.02716C45.5758 2.21001 45.6839 2.46266 45.6918 2.78511V4.25382C45.6918 4.54677 45.7291 4.77976 45.8038 4.95278V4.99997H45.2317ZM44.3263 4.58413C44.4973 4.58413 44.6595 4.53989 44.8129 4.45142C44.9663 4.36294 45.0774 4.24792 45.1462 4.10636V3.45163H44.7185C44.05 3.45163 43.7158 3.64726 43.7158 4.03853C43.7158 4.20958 43.7728 4.34328 43.8869 4.43962C44.0009 4.53596 44.1474 4.58413 44.3263 4.58413Z"/>
<path d="M48.9879 3.37495C48.9879 3.06233 49.0489 2.78118 49.1708 2.53147C49.2947 2.28177 49.4657 2.08909 49.684 1.95343C49.9042 1.81776 50.1548 1.74993 50.436 1.74993C50.8705 1.74993 51.2215 1.90034 51.4889 2.20116C51.7582 2.50198 51.8929 2.90209 51.8929 3.40149V3.43983C51.8929 3.75048 51.833 4.02968 51.713 4.27741C51.595 4.52318 51.425 4.71488 51.2028 4.85251C50.9826 4.99014 50.729 5.05896 50.4419 5.05896C50.0094 5.05896 49.6584 4.90854 49.389 4.60772C49.1216 4.3069 48.9879 3.90876 48.9879 3.41329V3.37495ZM49.5365 3.43983C49.5365 3.79374 49.6181 4.07785 49.7813 4.29216C49.9464 4.50647 50.1666 4.61362 50.4419 4.61362C50.7191 4.61362 50.9393 4.50548 51.1025 4.28921C51.2657 4.07097 51.3473 3.76621 51.3473 3.37495C51.3473 3.02498 51.2638 2.74185 51.0966 2.52558C50.9315 2.30733 50.7113 2.19821 50.436 2.19821C50.1666 2.19821 49.9494 2.30537 49.7842 2.51968C49.6191 2.73399 49.5365 3.04071 49.5365 3.43983Z"/>
<path d="M52.988 3.3779C52.988 2.88833 53.104 2.4951 53.336 2.19821C53.568 1.89936 53.8718 1.74993 54.2473 1.74993C54.6209 1.74993 54.9168 1.87773 55.1351 2.13333V0.469971H55.6807V4.99997H55.1793L55.1527 4.65786C54.9345 4.92526 54.6307 5.05896 54.2414 5.05896C53.8718 5.05896 53.57 4.90756 53.336 4.60478C53.104 4.30199 52.988 3.90679 52.988 3.41919V3.3779ZM53.5336 3.43983C53.5336 3.8016 53.6083 4.08473 53.7578 4.28921C53.9072 4.49369 54.1136 4.59593 54.3771 4.59593C54.7231 4.59593 54.9758 4.4406 55.1351 4.12995V2.66419C54.9719 2.36337 54.7212 2.21296 54.383 2.21296C54.1156 2.21296 53.9072 2.31618 53.7578 2.52263C53.6083 2.72907 53.5336 3.03481 53.5336 3.43983Z"/>
<path d="M59.899 4.24792L60.5124 1.80892H61.058L60.129 4.99997H59.6866L58.911 2.58161L58.156 4.99997H57.7136L56.7876 1.80892H57.3302L57.9584 4.19778L58.7016 1.80892H59.141L59.899 4.24792Z"/>
<path d="M62.7518 4.99997H62.2062V1.80892H62.7518V4.99997ZM62.162 0.96249C62.162 0.874014 62.1885 0.7993 62.2416 0.73835C62.2967 0.677399 62.3773 0.646924 62.4834 0.646924C62.5896 0.646924 62.6702 0.677399 62.7253 0.73835C62.7803 0.7993 62.8079 0.874014 62.8079 0.96249C62.8079 1.05097 62.7803 1.1247 62.7253 1.18368C62.6702 1.24267 62.5896 1.27216 62.4834 1.27216C62.3773 1.27216 62.2967 1.24267 62.2416 1.18368C62.1885 1.1247 62.162 1.05097 62.162 0.96249Z"/>
<path d="M65.4955 5.05896C65.063 5.05896 64.711 4.91739 64.4397 4.63427C64.1684 4.34918 64.0327 3.96873 64.0327 3.49292V3.39265C64.0327 3.0761 64.0927 2.79396 64.2126 2.54622C64.3345 2.29652 64.5036 2.10187 64.7199 1.96228C64.9381 1.82071 65.1741 1.74993 65.4277 1.74993C65.8426 1.74993 66.165 1.88658 66.3951 2.15987C66.6251 2.43317 66.7401 2.82443 66.7401 3.33366V3.56075H64.5783C64.5862 3.87534 64.6776 4.12995 64.8526 4.3246C65.0296 4.51728 65.2537 4.61362 65.525 4.61362C65.7177 4.61362 65.8809 4.5743 66.0146 4.49565C66.1483 4.41701 66.2653 4.3128 66.3656 4.18304L66.6988 4.44257C66.4314 4.85349 66.0303 5.05896 65.4955 5.05896ZM65.4277 2.19821C65.2075 2.19821 65.0227 2.27882 64.8733 2.44005C64.7238 2.59931 64.6314 2.82345 64.596 3.11247H66.1945V3.07118C66.1788 2.79395 66.1041 2.57965 65.9704 2.42825C65.8367 2.27489 65.6558 2.19821 65.4277 2.19821Z"/>
<path d="M67.7851 3.3779C67.7851 2.88833 67.9011 2.4951 68.1331 2.19821C68.3651 1.89936 68.6689 1.74993 69.0444 1.74993C69.418 1.74993 69.7139 1.87773 69.9321 2.13333V0.469971H70.4777V4.99997H69.9763L69.9498 4.65786C69.7316 4.92526 69.4278 5.05896 69.0385 5.05896C68.6689 5.05896 68.3671 4.90756 68.1331 4.60478C67.9011 4.30199 67.7851 3.90679 67.7851 3.41919V3.3779ZM68.3307 3.43983C68.3307 3.8016 68.4054 4.08473 68.5548 4.28921C68.7043 4.49369 68.9107 4.59593 69.1742 4.59593C69.5202 4.59593 69.7729 4.4406 69.9321 4.12995V2.66419C69.7689 2.36337 69.5182 2.21296 69.1801 2.21296C68.9127 2.21296 68.7043 2.31618 68.5548 2.52263C68.4054 2.72907 68.3307 3.03481 68.3307 3.43983Z"/>
<path d="M72.3839 4.55464H74.2507V4.99997H71.7173V4.59888L73.478 2.26015H71.7439V1.80892H74.1622V2.19526L72.3839 4.55464Z"/>
<path d="M76.0035 4.99997H75.4579V1.80892H76.0035V4.99997ZM75.4137 0.96249C75.4137 0.874014 75.4402 0.7993 75.4933 0.73835C75.5483 0.677399 75.6289 0.646924 75.7351 0.646924C75.8413 0.646924 75.9219 0.677399 75.977 0.73835C76.032 0.7993 76.0595 0.874014 76.0595 0.96249C76.0595 1.05097 76.032 1.1247 75.977 1.18368C75.9219 1.24267 75.8413 1.27216 75.7351 1.27216C75.6289 1.27216 75.5483 1.24267 75.4933 1.18368C75.4402 1.1247 75.4137 1.05097 75.4137 0.96249Z"/>
<path d="M77.9391 1.80892L77.9568 2.21001C78.2006 1.90329 78.5191 1.74993 78.9124 1.74993C79.5867 1.74993 79.9269 2.13038 79.9328 2.89128V4.99997H79.3872V2.88833C79.3852 2.65829 79.3321 2.48822 79.2279 2.37812C79.1257 2.26801 78.9654 2.21296 78.7472 2.21296C78.5703 2.21296 78.4149 2.26015 78.2812 2.35452C78.1475 2.4489 78.0433 2.57276 77.9686 2.72612V4.99997H77.423V1.80892H77.9391Z"/>
<path d="M82.3432 4.20073L83.0865 1.80892H83.6704L82.3875 5.49249C82.1889 6.02335 81.8733 6.28878 81.4408 6.28878L81.3376 6.27993L81.1341 6.24159V5.79921L81.2815 5.81101C81.4663 5.81101 81.6099 5.77365 81.7121 5.69894C81.8163 5.62422 81.9018 5.48758 81.9687 5.28899L82.0896 4.96458L80.9512 1.80892H81.547L82.3432 4.20073Z"/>
<path d="M85.3141 3.78784H84.8215L84.7832 0.705908H85.3553L85.3141 3.78784ZM84.7626 4.72569C84.7626 4.63722 84.7891 4.56349 84.8422 4.5045C84.8972 4.44355 84.9778 4.41308 85.084 4.41308C85.1902 4.41308 85.2708 4.44355 85.3259 4.5045C85.3809 4.56349 85.4084 4.63722 85.4084 4.72569C85.4084 4.81417 85.3809 4.8879 85.3259 4.94688C85.2708 5.0039 85.1902 5.03241 85.084 5.03241C84.9778 5.03241 84.8972 5.0039 84.8422 4.94688C84.7891 4.8879 84.7626 4.81417 84.7626 4.72569Z"/>
<path d="M1.92289 11.5369H4.37959V12H1.25342V11.5753L3.60689 8.17188H1.29176V7.70591H4.28521V8.12175L1.92289 11.5369Z"/>
<path d="M7.5421 12C7.51064 11.9371 7.48508 11.825 7.46542 11.6638C7.21178 11.9272 6.909 12.059 6.55706 12.059C6.24247 12.059 5.98393 11.9705 5.78141 11.7935C5.58087 11.6146 5.48059 11.3885 5.48059 11.1152C5.48059 10.7829 5.60643 10.5254 5.85809 10.3425C6.11173 10.1577 6.4676 10.0653 6.92571 10.0653H7.45657V9.8146C7.45657 9.62388 7.39955 9.47249 7.28551 9.36042C7.17148 9.24638 7.00337 9.18937 6.7812 9.18937C6.58655 9.18937 6.42336 9.23852 6.29163 9.33683C6.1599 9.43513 6.09403 9.55409 6.09403 9.69368H5.54548C5.54548 9.53442 5.60151 9.38106 5.71358 9.2336C5.82762 9.08418 5.98098 8.96621 6.17366 8.8797C6.36831 8.79319 6.58163 8.74993 6.81364 8.74993C7.18131 8.74993 7.46935 8.84234 7.67776 9.02716C7.88617 9.21001 7.99431 9.46266 8.00217 9.78511V11.2538C8.00217 11.5468 8.03953 11.7798 8.11424 11.9528V12H7.5421ZM6.63669 11.5841C6.80774 11.5841 6.96995 11.5399 7.12331 11.4514C7.27667 11.3629 7.38775 11.2479 7.45657 11.1064V10.4516H7.02893C6.36044 10.4516 6.0262 10.6473 6.0262 11.0385C6.0262 11.2096 6.08322 11.3433 6.19725 11.4396C6.31129 11.536 6.45777 11.5841 6.63669 11.5841Z"/>
<path d="M12.0966 10.4398C12.0966 10.9255 11.9855 11.3167 11.7634 11.6136C11.5412 11.9105 11.2404 12.059 10.8609 12.059C10.4736 12.059 10.1688 11.9361 9.94665 11.6903V13.2268H9.40105V8.80892H9.89947L9.92601 9.16282C10.1482 8.88756 10.4569 8.74993 10.8521 8.74993C11.2355 8.74993 11.5382 8.89444 11.7604 9.18347C11.9846 9.47249 12.0966 9.87457 12.0966 10.3897V10.4398ZM11.551 10.3779C11.551 10.0181 11.4743 9.73399 11.321 9.52558C11.1676 9.31717 10.9573 9.21296 10.6899 9.21296C10.3595 9.21296 10.1118 9.35944 9.94665 9.65239V11.1771C10.1098 11.4681 10.3595 11.6136 10.6958 11.6136C10.9573 11.6136 11.1647 11.5104 11.318 11.304C11.4734 11.0955 11.551 10.7869 11.551 10.3779Z"/>
<path d="M14.8787 9.29849C14.7961 9.28472 14.7067 9.27784 14.6103 9.27784C14.2525 9.27784 14.0097 9.43022 13.8819 9.73497V12H13.3362V8.80892H13.8671L13.876 9.17757C14.0549 8.89248 14.3085 8.74993 14.6369 8.74993C14.743 8.74993 14.8236 8.76369 14.8787 8.79122V9.29849Z"/>
<path d="M17.7787 12C17.7473 11.9371 17.7217 11.825 17.702 11.6638C17.4484 11.9272 17.1456 12.059 16.7937 12.059C16.4791 12.059 16.2205 11.9705 16.018 11.7935C15.8175 11.6146 15.7172 11.3885 15.7172 11.1152C15.7172 10.7829 15.843 10.5254 16.0947 10.3425C16.3483 10.1577 16.7042 10.0653 17.1623 10.0653H17.6932V9.8146C17.6932 9.62388 17.6362 9.47249 17.5221 9.36042C17.4081 9.24638 17.24 9.18937 17.0178 9.18937C16.8232 9.18937 16.66 9.23852 16.5282 9.33683C16.3965 9.43513 16.3307 9.55409 16.3307 9.69368H15.7821C15.7821 9.53442 15.8381 9.38106 15.9502 9.2336C16.0642 9.08418 16.2176 8.96621 16.4103 8.8797C16.6049 8.79319 16.8183 8.74993 17.0503 8.74993C17.4179 8.74993 17.706 8.84234 17.9144 9.02716C18.1228 9.21001 18.2309 9.46266 18.2388 9.78511V11.2538C18.2388 11.5468 18.2762 11.7798 18.3509 11.9528V12H17.7787ZM16.8733 11.5841C17.0444 11.5841 17.2066 11.5399 17.3599 11.4514C17.5133 11.3629 17.6244 11.2479 17.6932 11.1064V10.4516H17.2656C16.5971 10.4516 16.2628 10.6473 16.2628 11.0385C16.2628 11.2096 16.3198 11.3433 16.4339 11.4396C16.5479 11.536 16.6944 11.5841 16.8733 11.5841Z"/>
<path d="M21.4957 11.1535C21.4957 11.0061 21.4396 10.892 21.3276 10.8114C21.2175 10.7289 21.0238 10.6581 20.7466 10.5991C20.4713 10.5401 20.2521 10.4693 20.0889 10.3867C19.9277 10.3042 19.8077 10.2059 19.7291 10.0918C19.6524 9.97779 19.6141 9.84213 19.6141 9.68483C19.6141 9.42334 19.7242 9.20214 19.9444 9.02126C20.1666 8.84037 20.4497 8.74993 20.7938 8.74993C21.1555 8.74993 21.4485 8.84332 21.6726 9.03011C21.8987 9.21689 22.0118 9.45578 22.0118 9.74677H21.4632C21.4632 9.59734 21.3993 9.46856 21.2715 9.36042C21.1457 9.25228 20.9864 9.19821 20.7938 9.19821C20.5952 9.19821 20.4399 9.24147 20.3278 9.32798C20.2157 9.41449 20.1597 9.52754 20.1597 9.66714C20.1597 9.79887 20.2118 9.89816 20.316 9.96501C20.4202 10.0319 20.608 10.0958 20.8793 10.1567C21.1526 10.2177 21.3738 10.2904 21.5429 10.375C21.712 10.4595 21.8368 10.5617 21.9174 10.6817C22 10.7996 22.0413 10.9442 22.0413 11.1152C22.0413 11.4003 21.9272 11.6294 21.6992 11.8024C21.4711 11.9734 21.1752 12.059 20.8115 12.059C20.5559 12.059 20.3298 12.0137 20.1331 11.9233C19.9365 11.8328 19.7822 11.707 19.6701 11.5458C19.56 11.3826 19.505 11.2066 19.505 11.0179H20.0506C20.0604 11.2007 20.1331 11.3462 20.2688 11.4544C20.4064 11.5605 20.5873 11.6136 20.8115 11.6136C21.0179 11.6136 21.1831 11.5723 21.3069 11.4898C21.4328 11.4052 21.4957 11.2931 21.4957 11.1535Z"/>
<path d="M23.8088 11.5546H25.6757V12H23.1423V11.5989L24.903 9.26015H23.1688V8.80892H25.5872V9.19526L23.8088 11.5546Z"/>
<path d="M28.8057 12C28.7743 11.9371 28.7487 11.825 28.729 11.6638C28.4754 11.9272 28.1726 12.059 27.8207 12.059C27.5061 12.059 27.2476 11.9705 27.045 11.7935C26.8445 11.6146 26.7442 11.3885 26.7442 11.1152C26.7442 10.7829 26.8701 10.5254 27.1217 10.3425C27.3754 10.1577 27.7312 10.0653 28.1893 10.0653H28.7202V9.8146C28.7202 9.62388 28.6632 9.47249 28.5491 9.36042C28.4351 9.24638 28.267 9.18937 28.0448 9.18937C27.8502 9.18937 27.687 9.23852 27.5553 9.33683C27.4235 9.43513 27.3577 9.55409 27.3577 9.69368H26.8091C26.8091 9.53442 26.8651 9.38106 26.9772 9.2336C27.0912 9.08418 27.2446 8.96621 27.4373 8.8797C27.6319 8.79319 27.8453 8.74993 28.0773 8.74993C28.4449 8.74993 28.733 8.84234 28.9414 9.02716C29.1498 9.21001 29.2579 9.46266 29.2658 9.78511V11.2538C29.2658 11.5468 29.3032 11.7798 29.3779 11.9528V12H28.8057ZM27.9003 11.5841C28.0714 11.5841 28.2336 11.5399 28.3869 11.4514C28.5403 11.3629 28.6514 11.2479 28.7202 11.1064V10.4516H28.2926C27.6241 10.4516 27.2898 10.6473 27.2898 11.0385C27.2898 11.2096 27.3468 11.3433 27.4609 11.4396C27.5749 11.536 27.7214 11.5841 27.9003 11.5841Z"/>
<path d="M31.1778 8.80892L31.1926 9.16282C31.4266 8.88756 31.7421 8.74993 32.1393 8.74993C32.5856 8.74993 32.8894 8.92099 33.0506 9.2631C33.1568 9.10974 33.2944 8.98587 33.4635 8.89149C33.6345 8.79712 33.8361 8.74993 34.0681 8.74993C34.768 8.74993 35.1239 9.12055 35.1357 9.86179V12H34.5901V9.89423C34.5901 9.66616 34.538 9.49608 34.4338 9.38401C34.3296 9.26998 34.1546 9.21296 33.9088 9.21296C33.7063 9.21296 33.5382 9.27391 33.4045 9.39581C33.2708 9.51575 33.1931 9.67795 33.1715 9.88243V12H32.623V9.90897C32.623 9.44496 32.3959 9.21296 31.9417 9.21296C31.5839 9.21296 31.3391 9.36534 31.2073 9.67009V12H30.6617V8.80892H31.1778Z"/>
<path d="M37.5491 11.2007L38.2923 8.80892H38.8762L37.5933 12.4925C37.3948 13.0233 37.0792 13.2888 36.6466 13.2888L36.5434 13.2799L36.3399 13.2416V12.7992L36.4874 12.811C36.6722 12.811 36.8157 12.7736 36.918 12.6989C37.0222 12.6242 37.1077 12.4876 37.1745 12.289L37.2955 11.9646L36.1571 8.80892H36.7528L37.5491 11.2007Z"/>
<path d="M44.6468 10.4398C44.6468 10.9255 44.5357 11.3167 44.3135 11.6136C44.0914 11.9105 43.7905 12.059 43.4111 12.059C43.0238 12.059 42.719 11.9361 42.4968 11.6903V13.2268H41.9512V8.80892H42.4496L42.4762 9.16282C42.6984 8.88756 43.007 8.74993 43.4022 8.74993C43.7856 8.74993 44.0884 8.89444 44.3106 9.18347C44.5347 9.47249 44.6468 9.87457 44.6468 10.3897V10.4398ZM44.1012 10.3779C44.1012 10.0181 44.0245 9.73399 43.8712 9.52558C43.7178 9.31717 43.5074 9.21296 43.24 9.21296C42.9097 9.21296 42.662 9.35944 42.4968 9.65239V11.1771C42.66 11.4681 42.9097 11.6136 43.2459 11.6136C43.5074 11.6136 43.7149 11.5104 43.8682 11.304C44.0235 11.0955 44.1012 10.7869 44.1012 10.3779Z"/>
<path d="M45.7419 10.375C45.7419 10.0623 45.8029 9.78118 45.9248 9.53148C46.0486 9.28177 46.2197 9.08909 46.4379 8.95343C46.6581 8.81776 46.9088 8.74993 47.19 8.74993C47.6245 8.74993 47.9755 8.90034 48.2428 9.20116C48.5122 9.50198 48.6469 9.90209 48.6469 10.4015V10.4398C48.6469 10.7505 48.5869 11.0297 48.467 11.2774C48.349 11.5232 48.179 11.7149 47.9568 11.8525C47.7366 11.9901 47.4829 12.059 47.1959 12.059C46.7633 12.059 46.4124 11.9085 46.143 11.6077C45.8756 11.3069 45.7419 10.9088 45.7419 10.4133V10.375ZM46.2905 10.4398C46.2905 10.7937 46.3721 11.0778 46.5353 11.2922C46.7004 11.5065 46.9206 11.6136 47.1959 11.6136C47.4731 11.6136 47.6933 11.5055 47.8565 11.2892C48.0197 11.071 48.1013 10.7662 48.1013 10.375C48.1013 10.025 48.0177 9.74185 47.8506 9.52558C47.6854 9.30733 47.4652 9.19821 47.19 9.19821C46.9206 9.19821 46.7034 9.30537 46.5382 9.51968C46.373 9.73399 46.2905 10.0407 46.2905 10.4398Z"/>
<path d="M50.3908 8.80892L50.4085 9.21001C50.6523 8.90329 50.9708 8.74993 51.3641 8.74993C52.0385 8.74993 52.3786 9.13038 52.3845 9.89128V12H51.8389V9.88833C51.8369 9.65829 51.7838 9.48822 51.6796 9.37812C51.5774 9.26801 51.4172 9.21296 51.1989 9.21296C51.022 9.21296 50.8666 9.26015 50.7329 9.35452C50.5992 9.4489 50.495 9.57276 50.4203 9.72612V12H49.8747V8.80892H50.3908Z"/>
<path d="M53.6064 10.375C53.6064 10.0623 53.6674 9.78118 53.7893 9.53148C53.9131 9.28177 54.0842 9.08909 54.3024 8.95343C54.5226 8.81776 54.7733 8.74993 55.0545 8.74993C55.489 8.74993 55.84 8.90034 56.1074 9.20116C56.3767 9.50198 56.5114 9.90209 56.5114 10.4015V10.4398C56.5114 10.7505 56.4514 11.0297 56.3315 11.2774C56.2135 11.5232 56.0435 11.7149 55.8213 11.8525C55.6011 11.9901 55.3474 12.059 55.0604 12.059C54.6278 12.059 54.2769 11.9085 54.0075 11.6077C53.7401 11.3069 53.6064 10.9088 53.6064 10.4133V10.375ZM54.155 10.4398C54.155 10.7937 54.2366 11.0778 54.3998 11.2922C54.5649 11.5065 54.7851 11.6136 55.0604 11.6136C55.3376 11.6136 55.5578 11.5055 55.721 11.2892C55.8842 11.071 55.9658 10.7662 55.9658 10.375C55.9658 10.025 55.8822 9.74185 55.7151 9.52558C55.55 9.30733 55.3297 9.19821 55.0545 9.19821C54.7851 9.19821 54.5679 9.30537 54.4027 9.51968C54.2375 9.73399 54.155 10.0407 54.155 10.4398Z"/>
<path d="M60.5646 11.2479L61.178 8.80892H61.7236L60.7946 12H60.3522L59.5766 9.58161L58.8216 12H58.3792L57.4531 8.80892H57.9958L58.624 11.1978L59.3672 8.80892H59.8066L60.5646 11.2479Z"/>
<path d="M63.3407 8.80892L63.3584 9.21001C63.6022 8.90329 63.9207 8.74993 64.314 8.74993C64.9884 8.74993 65.3285 9.13038 65.3344 9.89128V12H64.7888V9.88833C64.7868 9.65829 64.7337 9.48822 64.6295 9.37812C64.5273 9.26801 64.367 9.21296 64.1488 9.21296C63.9719 9.21296 63.8165 9.26015 63.6828 9.35452C63.5491 9.4489 63.4449 9.57276 63.3702 9.72612V12H62.8246V8.80892H63.3407Z"/>
<path d="M67.2936 12H66.748V8.80892H67.2936V12ZM66.7038 7.96249C66.7038 7.87401 66.7303 7.7993 66.7834 7.73835C66.8385 7.6774 66.9191 7.64692 67.0252 7.64692C67.1314 7.64692 67.212 7.6774 67.2671 7.73835C67.3221 7.7993 67.3497 7.87401 67.3497 7.96249C67.3497 8.05097 67.3221 8.1247 67.2671 8.18368C67.212 8.24267 67.1314 8.27216 67.0252 8.27216C66.9191 8.27216 66.8385 8.24267 66.7834 8.18368C66.7303 8.1247 66.7038 8.05097 66.7038 7.96249Z"/>
<path d="M70.0373 12.059C69.6048 12.059 69.2528 11.9174 68.9815 11.6343C68.7102 11.3492 68.5745 10.9687 68.5745 10.4929V10.3926C68.5745 10.0761 68.6345 9.79396 68.7544 9.54622C68.8763 9.29652 69.0454 9.10187 69.2617 8.96228C69.4799 8.82071 69.7159 8.74993 69.9695 8.74993C70.3844 8.74993 70.7068 8.88658 70.9368 9.15987C71.1669 9.43317 71.2819 9.82443 71.2819 10.3337V10.5608H69.1201C69.128 10.8753 69.2194 11.13 69.3944 11.3246C69.5714 11.5173 69.7955 11.6136 70.0668 11.6136C70.2595 11.6136 70.4227 11.5743 70.5564 11.4957C70.6901 11.417 70.8071 11.3128 70.9074 11.183L71.2406 11.4426C70.9732 11.8535 70.5721 12.059 70.0373 12.059ZM69.9695 9.19821C69.7493 9.19821 69.5645 9.27883 69.4151 9.44005C69.2656 9.59931 69.1732 9.82345 69.1378 10.1125H70.7363V10.0712C70.7206 9.79395 70.6459 9.57965 70.5122 9.42825C70.3785 9.27489 70.1976 9.19821 69.9695 9.19821Z"/>
<path d="M73.0701 10.7878H72.5776L72.5392 7.70591H73.1114L73.0701 10.7878ZM72.5186 11.7257C72.5186 11.6372 72.5451 11.5635 72.5982 11.5045C72.6533 11.4436 72.7339 11.4131 72.84 11.4131C72.9462 11.4131 73.0268 11.4436 73.0819 11.5045C73.1369 11.5635 73.1645 11.6372 73.1645 11.7257C73.1645 11.8142 73.1369 11.8879 73.0819 11.9469C73.0268 12.0039 72.9462 12.0324 72.84 12.0324C72.7339 12.0324 72.6533 12.0039 72.5982 11.9469C72.5451 11.8879 72.5186 11.8142 72.5186 11.7257Z"/>
</mask>
<path d="M1.4982 4.99997V0.705908H2.71033C3.0839 0.705908 3.41421 0.788486 3.70127 0.953643C3.98833 1.1188 4.20952 1.35375 4.36484 1.65851C4.52214 1.96326 4.60176 2.31323 4.60373 2.70843V2.98271C4.60373 3.38773 4.52508 3.74262 4.36779 4.04737C4.21247 4.35213 3.98931 4.5861 3.69832 4.74929C3.4093 4.91248 3.0721 4.99604 2.68674 4.99997H1.4982ZM2.06445 1.17188V4.53694H2.6602C3.09668 4.53694 3.43584 4.40128 3.67768 4.12995C3.92148 3.85862 4.04338 3.47228 4.04338 2.97091V2.72022C4.04338 2.23262 3.92836 1.85414 3.69832 1.58478C3.47025 1.31345 3.14583 1.17582 2.72508 1.17188H2.06445Z" fill="black"/>
<path d="M6.43319 4.55464H8.30005V4.99997H5.76667V4.59888L7.52735 2.26015H5.79321V1.80892H8.21157V2.19526L6.43319 4.55464Z" fill="black"/>
<path d="M10.0528 4.99997H9.50722V1.80892H10.0528V4.99997ZM9.46298 0.96249C9.46298 0.874014 9.48952 0.7993 9.54261 0.73835C9.59766 0.677399 9.67827 0.646924 9.78445 0.646924C9.89062 0.646924 9.97123 0.677399 10.0263 0.73835C10.0813 0.7993 10.1089 0.874014 10.1089 0.96249C10.1089 1.05097 10.0813 1.1247 10.0263 1.18368C9.97123 1.24267 9.89062 1.27216 9.78445 1.27216C9.67827 1.27216 9.59766 1.24267 9.54261 1.18368C9.48952 1.1247 9.46298 1.05097 9.46298 0.96249Z" fill="black"/>
<path d="M13.9998 4.44257C13.8602 4.65884 13.6774 4.82007 13.4513 4.92624H13.4542L13.2832 5.05896C13.061 5.23787 12.9499 5.41188 12.9499 5.58097C12.9499 5.72253 13.0266 5.79331 13.1799 5.79331C13.2743 5.79331 13.3726 5.76775 13.4749 5.71663L13.5132 6.07349C13.3756 6.16 13.2183 6.20325 13.0413 6.20325C12.8663 6.20325 12.7277 6.15213 12.6255 6.04989C12.5252 5.94765 12.4751 5.81199 12.4751 5.6429C12.4751 5.43056 12.5714 5.23591 12.7641 5.05896C12.3355 5.05109 11.9894 4.9056 11.726 4.62247C11.4645 4.33738 11.3337 3.95988 11.3337 3.48997V3.39265C11.3337 3.0761 11.3937 2.79396 11.5136 2.54622C11.6355 2.29652 11.8046 2.10187 12.0209 1.96228C12.2391 1.82071 12.4751 1.74993 12.7287 1.74993C13.1436 1.74993 13.466 1.88658 13.6961 2.15987C13.9261 2.43317 14.0411 2.82443 14.0411 3.33366V3.56075H11.8793C11.8872 3.87534 11.9786 4.12995 12.1536 4.3246C12.3306 4.51728 12.5547 4.61362 12.826 4.61362C13.0187 4.61362 13.1819 4.5743 13.3156 4.49565C13.4493 4.41701 13.5663 4.3128 13.6666 4.18304L13.9998 4.44257ZM12.7287 2.19821C12.5085 2.19821 12.3237 2.27882 12.1743 2.44005C12.0248 2.59931 11.9324 2.82345 11.897 3.11247H13.4955V3.07118C13.4798 2.79395 13.4051 2.57965 13.2714 2.42825C13.1377 2.27489 12.9568 2.19821 12.7287 2.19821Z" fill="black"/>
<path d="M16.1095 3.52241L15.7673 3.87927V4.99997H15.2217V0.469971H15.7673V3.20979L16.0593 2.85884L17.0532 1.80892H17.7168L16.4752 3.14196L17.8613 4.99997H17.2213L16.1095 3.52241Z" fill="black"/>
<path d="M20.7938 4.6844C20.5814 4.9341 20.2698 5.05896 19.8589 5.05896C19.5187 5.05896 19.2592 4.96065 19.0803 4.76403C18.9033 4.56545 18.8139 4.2725 18.8119 3.88517V1.80892H19.3575V3.87042C19.3575 4.35409 19.5541 4.59593 19.9473 4.59593C20.3642 4.59593 20.6414 4.4406 20.779 4.12995V1.80892H21.3246V4.99997H20.8056L20.7938 4.6844Z" fill="black"/>
<path d="M23.2632 1.80892V5.36862C23.2632 5.98206 22.985 6.28878 22.4286 6.28878C22.3086 6.28878 22.1976 6.27108 22.0953 6.23569V5.79921C22.1582 5.81494 22.2408 5.8228 22.343 5.8228C22.4649 5.8228 22.5574 5.78938 22.6203 5.72253C22.6852 5.65765 22.7176 5.54361 22.7176 5.38042V1.80892H23.2632ZM22.6616 0.96249C22.6616 0.87598 22.6881 0.802249 22.7412 0.741299C22.7962 0.678382 22.8759 0.646924 22.9801 0.646924C23.0862 0.646924 23.1669 0.677399 23.2219 0.73835C23.277 0.7993 23.3045 0.874014 23.3045 0.96249C23.3045 1.05097 23.277 1.1247 23.2219 1.18368C23.1669 1.24267 23.0862 1.27216 22.9801 1.27216C22.8739 1.27216 22.7943 1.24267 22.7412 1.18368C22.6881 1.1247 22.6616 1.05097 22.6616 0.96249Z" fill="black"/>
<path d="M26.0128 5.05896C25.5803 5.05896 25.2283 4.91739 24.957 4.63427C24.6857 4.34918 24.55 3.96873 24.55 3.49292V3.39265C24.55 3.0761 24.61 2.79396 24.7299 2.54622C24.8518 2.29652 25.0209 2.10187 25.2372 1.96228C25.4554 1.82071 25.6914 1.74993 25.945 1.74993C26.3598 1.74993 26.6823 1.88658 26.9123 2.15987C27.1424 2.43317 27.2574 2.82443 27.2574 3.33366V3.56075H25.0956C25.1035 3.87534 25.1949 4.12995 25.3699 4.3246C25.5468 4.51728 25.771 4.61362 26.0423 4.61362C26.235 4.61362 26.3982 4.5743 26.5319 4.49565C26.6656 4.41701 26.7826 4.3128 26.8828 4.18304L27.2161 4.44257C26.9487 4.85349 26.5476 5.05896 26.0128 5.05896ZM25.945 2.19821C25.7248 2.19821 25.54 2.27882 25.3905 2.44005C25.2411 2.59931 25.1487 2.82345 25.1133 3.11247H26.7118V3.07118C26.6961 2.79395 26.6213 2.57965 26.4876 2.42825C26.3539 2.27489 26.1731 2.19821 25.945 2.19821Z" fill="black"/>
<path d="M28.9482 1.80892L28.963 2.16282C29.197 1.88756 29.5125 1.74993 29.9097 1.74993C30.356 1.74993 30.6598 1.92099 30.821 2.2631C30.9272 2.10974 31.0648 1.98587 31.2339 1.89149C31.4049 1.79712 31.6065 1.74993 31.8385 1.74993C32.5384 1.74993 32.8943 2.12055 32.9061 2.86179V4.99997H32.3605V2.89423C32.3605 2.66616 32.3084 2.49608 32.2042 2.38401C32.1 2.26998 31.925 2.21296 31.6792 2.21296C31.4767 2.21296 31.3086 2.27391 31.1749 2.39581C31.0412 2.51575 30.9635 2.67795 30.9419 2.88243V4.99997H30.3934V2.90897C30.3934 2.44496 30.1663 2.21296 29.7121 2.21296C29.3542 2.21296 29.1095 2.36534 28.9777 2.67009V4.99997H28.4321V1.80892H28.9482Z" fill="black"/>
<path d="M35.3195 4.20073L36.0627 1.80892H36.6466L35.3637 5.49249C35.1651 6.02335 34.8496 6.28878 34.417 6.28878L34.3138 6.27993L34.1103 6.24159V5.79921L34.2578 5.81101C34.4426 5.81101 34.5861 5.77365 34.6884 5.69894C34.7926 5.62422 34.8781 5.48758 34.9449 5.28899L35.0659 4.96458L33.9275 1.80892H34.5232L35.3195 4.20073Z" fill="black"/>
<path d="M40.2348 4.55464H42.1016V4.99997H39.5683V4.59888L41.3289 2.26015H39.5948V1.80892H42.0132V2.19526L40.2348 4.55464Z" fill="black"/>
<path d="M45.2317 4.99997C45.2002 4.93705 45.1747 4.82498 45.155 4.66376C44.9014 4.92722 44.5986 5.05896 44.2467 5.05896C43.9321 5.05896 43.6735 4.97048 43.471 4.79353C43.2705 4.61461 43.1702 4.3885 43.1702 4.11521C43.1702 3.78293 43.296 3.52536 43.5477 3.34251C43.8013 3.15769 44.1572 3.06528 44.6153 3.06528H45.1462V2.8146C45.1462 2.62388 45.0891 2.47249 44.9751 2.36042C44.8611 2.24638 44.693 2.18937 44.4708 2.18937C44.2762 2.18937 44.113 2.23852 43.9812 2.33683C43.8495 2.43513 43.7836 2.55409 43.7836 2.69368H43.2351C43.2351 2.53442 43.2911 2.38106 43.4032 2.2336C43.5172 2.08418 43.6706 1.96621 43.8633 1.8797C44.0579 1.79319 44.2712 1.74993 44.5032 1.74993C44.8709 1.74993 45.1589 1.84234 45.3674 2.02716C45.5758 2.21001 45.6839 2.46266 45.6918 2.78511V4.25382C45.6918 4.54677 45.7291 4.77976 45.8038 4.95278V4.99997H45.2317ZM44.3263 4.58413C44.4973 4.58413 44.6595 4.53989 44.8129 4.45142C44.9663 4.36294 45.0774 4.24792 45.1462 4.10636V3.45163H44.7185C44.05 3.45163 43.7158 3.64726 43.7158 4.03853C43.7158 4.20958 43.7728 4.34328 43.8869 4.43962C44.0009 4.53596 44.1474 4.58413 44.3263 4.58413Z" fill="black"/>
<path d="M48.9879 3.37495C48.9879 3.06233 49.0489 2.78118 49.1708 2.53147C49.2947 2.28177 49.4657 2.08909 49.684 1.95343C49.9042 1.81776 50.1548 1.74993 50.436 1.74993C50.8705 1.74993 51.2215 1.90034 51.4889 2.20116C51.7582 2.50198 51.8929 2.90209 51.8929 3.40149V3.43983C51.8929 3.75048 51.833 4.02968 51.713 4.27741C51.595 4.52318 51.425 4.71488 51.2028 4.85251C50.9826 4.99014 50.729 5.05896 50.4419 5.05896C50.0094 5.05896 49.6584 4.90854 49.389 4.60772C49.1216 4.3069 48.9879 3.90876 48.9879 3.41329V3.37495ZM49.5365 3.43983C49.5365 3.79374 49.6181 4.07785 49.7813 4.29216C49.9464 4.50647 50.1666 4.61362 50.4419 4.61362C50.7191 4.61362 50.9393 4.50548 51.1025 4.28921C51.2657 4.07097 51.3473 3.76621 51.3473 3.37495C51.3473 3.02498 51.2638 2.74185 51.0966 2.52558C50.9315 2.30733 50.7113 2.19821 50.436 2.19821C50.1666 2.19821 49.9494 2.30537 49.7842 2.51968C49.6191 2.73399 49.5365 3.04071 49.5365 3.43983Z" fill="black"/>
<path d="M52.988 3.3779C52.988 2.88833 53.104 2.4951 53.336 2.19821C53.568 1.89936 53.8718 1.74993 54.2473 1.74993C54.6209 1.74993 54.9168 1.87773 55.1351 2.13333V0.469971H55.6807V4.99997H55.1793L55.1527 4.65786C54.9345 4.92526 54.6307 5.05896 54.2414 5.05896C53.8718 5.05896 53.57 4.90756 53.336 4.60478C53.104 4.30199 52.988 3.90679 52.988 3.41919V3.3779ZM53.5336 3.43983C53.5336 3.8016 53.6083 4.08473 53.7578 4.28921C53.9072 4.49369 54.1136 4.59593 54.3771 4.59593C54.7231 4.59593 54.9758 4.4406 55.1351 4.12995V2.66419C54.9719 2.36337 54.7212 2.21296 54.383 2.21296C54.1156 2.21296 53.9072 2.31618 53.7578 2.52263C53.6083 2.72907 53.5336 3.03481 53.5336 3.43983Z" fill="black"/>
<path d="M59.899 4.24792L60.5124 1.80892H61.058L60.129 4.99997H59.6866L58.911 2.58161L58.156 4.99997H57.7136L56.7876 1.80892H57.3302L57.9584 4.19778L58.7016 1.80892H59.141L59.899 4.24792Z" fill="black"/>
<path d="M62.7518 4.99997H62.2062V1.80892H62.7518V4.99997ZM62.162 0.96249C62.162 0.874014 62.1885 0.7993 62.2416 0.73835C62.2967 0.677399 62.3773 0.646924 62.4834 0.646924C62.5896 0.646924 62.6702 0.677399 62.7253 0.73835C62.7803 0.7993 62.8079 0.874014 62.8079 0.96249C62.8079 1.05097 62.7803 1.1247 62.7253 1.18368C62.6702 1.24267 62.5896 1.27216 62.4834 1.27216C62.3773 1.27216 62.2967 1.24267 62.2416 1.18368C62.1885 1.1247 62.162 1.05097 62.162 0.96249Z" fill="black"/>
<path d="M65.4955 5.05896C65.063 5.05896 64.711 4.91739 64.4397 4.63427C64.1684 4.34918 64.0327 3.96873 64.0327 3.49292V3.39265C64.0327 3.0761 64.0927 2.79396 64.2126 2.54622C64.3345 2.29652 64.5036 2.10187 64.7199 1.96228C64.9381 1.82071 65.1741 1.74993 65.4277 1.74993C65.8426 1.74993 66.165 1.88658 66.3951 2.15987C66.6251 2.43317 66.7401 2.82443 66.7401 3.33366V3.56075H64.5783C64.5862 3.87534 64.6776 4.12995 64.8526 4.3246C65.0296 4.51728 65.2537 4.61362 65.525 4.61362C65.7177 4.61362 65.8809 4.5743 66.0146 4.49565C66.1483 4.41701 66.2653 4.3128 66.3656 4.18304L66.6988 4.44257C66.4314 4.85349 66.0303 5.05896 65.4955 5.05896ZM65.4277 2.19821C65.2075 2.19821 65.0227 2.27882 64.8733 2.44005C64.7238 2.59931 64.6314 2.82345 64.596 3.11247H66.1945V3.07118C66.1788 2.79395 66.1041 2.57965 65.9704 2.42825C65.8367 2.27489 65.6558 2.19821 65.4277 2.19821Z" fill="black"/>
<path d="M67.7851 3.3779C67.7851 2.88833 67.9011 2.4951 68.1331 2.19821C68.3651 1.89936 68.6689 1.74993 69.0444 1.74993C69.418 1.74993 69.7139 1.87773 69.9321 2.13333V0.469971H70.4777V4.99997H69.9763L69.9498 4.65786C69.7316 4.92526 69.4278 5.05896 69.0385 5.05896C68.6689 5.05896 68.3671 4.90756 68.1331 4.60478C67.9011 4.30199 67.7851 3.90679 67.7851 3.41919V3.3779ZM68.3307 3.43983C68.3307 3.8016 68.4054 4.08473 68.5548 4.28921C68.7043 4.49369 68.9107 4.59593 69.1742 4.59593C69.5202 4.59593 69.7729 4.4406 69.9321 4.12995V2.66419C69.7689 2.36337 69.5182 2.21296 69.1801 2.21296C68.9127 2.21296 68.7043 2.31618 68.5548 2.52263C68.4054 2.72907 68.3307 3.03481 68.3307 3.43983Z" fill="black"/>
<path d="M72.3839 4.55464H74.2507V4.99997H71.7173V4.59888L73.478 2.26015H71.7439V1.80892H74.1622V2.19526L72.3839 4.55464Z" fill="black"/>
<path d="M76.0035 4.99997H75.4579V1.80892H76.0035V4.99997ZM75.4137 0.96249C75.4137 0.874014 75.4402 0.7993 75.4933 0.73835C75.5483 0.677399 75.6289 0.646924 75.7351 0.646924C75.8413 0.646924 75.9219 0.677399 75.977 0.73835C76.032 0.7993 76.0595 0.874014 76.0595 0.96249C76.0595 1.05097 76.032 1.1247 75.977 1.18368C75.9219 1.24267 75.8413 1.27216 75.7351 1.27216C75.6289 1.27216 75.5483 1.24267 75.4933 1.18368C75.4402 1.1247 75.4137 1.05097 75.4137 0.96249Z" fill="black"/>
<path d="M77.9391 1.80892L77.9568 2.21001C78.2006 1.90329 78.5191 1.74993 78.9124 1.74993C79.5867 1.74993 79.9269 2.13038 79.9328 2.89128V4.99997H79.3872V2.88833C79.3852 2.65829 79.3321 2.48822 79.2279 2.37812C79.1257 2.26801 78.9654 2.21296 78.7472 2.21296C78.5703 2.21296 78.4149 2.26015 78.2812 2.35452C78.1475 2.4489 78.0433 2.57276 77.9686 2.72612V4.99997H77.423V1.80892H77.9391Z" fill="black"/>
<path d="M82.3432 4.20073L83.0865 1.80892H83.6704L82.3875 5.49249C82.1889 6.02335 81.8733 6.28878 81.4408 6.28878L81.3376 6.27993L81.1341 6.24159V5.79921L81.2815 5.81101C81.4663 5.81101 81.6099 5.77365 81.7121 5.69894C81.8163 5.62422 81.9018 5.48758 81.9687 5.28899L82.0896 4.96458L80.9512 1.80892H81.547L82.3432 4.20073Z" fill="black"/>
<path d="M85.3141 3.78784H84.8215L84.7832 0.705908H85.3553L85.3141 3.78784ZM84.7626 4.72569C84.7626 4.63722 84.7891 4.56349 84.8422 4.5045C84.8972 4.44355 84.9778 4.41308 85.084 4.41308C85.1902 4.41308 85.2708 4.44355 85.3259 4.5045C85.3809 4.56349 85.4084 4.63722 85.4084 4.72569C85.4084 4.81417 85.3809 4.8879 85.3259 4.94688C85.2708 5.0039 85.1902 5.03241 85.084 5.03241C84.9778 5.03241 84.8972 5.0039 84.8422 4.94688C84.7891 4.8879 84.7626 4.81417 84.7626 4.72569Z" fill="black"/>
<path d="M1.92289 11.5369H4.37959V12H1.25342V11.5753L3.60689 8.17188H1.29176V7.70591H4.28521V8.12175L1.92289 11.5369Z" fill="black"/>
<path d="M7.5421 12C7.51064 11.9371 7.48508 11.825 7.46542 11.6638C7.21178 11.9272 6.909 12.059 6.55706 12.059C6.24247 12.059 5.98393 11.9705 5.78141 11.7935C5.58087 11.6146 5.48059 11.3885 5.48059 11.1152C5.48059 10.7829 5.60643 10.5254 5.85809 10.3425C6.11173 10.1577 6.4676 10.0653 6.92571 10.0653H7.45657V9.8146C7.45657 9.62388 7.39955 9.47249 7.28551 9.36042C7.17148 9.24638 7.00337 9.18937 6.7812 9.18937C6.58655 9.18937 6.42336 9.23852 6.29163 9.33683C6.1599 9.43513 6.09403 9.55409 6.09403 9.69368H5.54548C5.54548 9.53442 5.60151 9.38106 5.71358 9.2336C5.82762 9.08418 5.98098 8.96621 6.17366 8.8797C6.36831 8.79319 6.58163 8.74993 6.81364 8.74993C7.18131 8.74993 7.46935 8.84234 7.67776 9.02716C7.88617 9.21001 7.99431 9.46266 8.00217 9.78511V11.2538C8.00217 11.5468 8.03953 11.7798 8.11424 11.9528V12H7.5421ZM6.63669 11.5841C6.80774 11.5841 6.96995 11.5399 7.12331 11.4514C7.27667 11.3629 7.38775 11.2479 7.45657 11.1064V10.4516H7.02893C6.36044 10.4516 6.0262 10.6473 6.0262 11.0385C6.0262 11.2096 6.08322 11.3433 6.19725 11.4396C6.31129 11.536 6.45777 11.5841 6.63669 11.5841Z" fill="black"/>
<path d="M12.0966 10.4398C12.0966 10.9255 11.9855 11.3167 11.7634 11.6136C11.5412 11.9105 11.2404 12.059 10.8609 12.059C10.4736 12.059 10.1688 11.9361 9.94665 11.6903V13.2268H9.40105V8.80892H9.89947L9.92601 9.16282C10.1482 8.88756 10.4569 8.74993 10.8521 8.74993C11.2355 8.74993 11.5382 8.89444 11.7604 9.18347C11.9846 9.47249 12.0966 9.87457 12.0966 10.3897V10.4398ZM11.551 10.3779C11.551 10.0181 11.4743 9.73399 11.321 9.52558C11.1676 9.31717 10.9573 9.21296 10.6899 9.21296C10.3595 9.21296 10.1118 9.35944 9.94665 9.65239V11.1771C10.1098 11.4681 10.3595 11.6136 10.6958 11.6136C10.9573 11.6136 11.1647 11.5104 11.318 11.304C11.4734 11.0955 11.551 10.7869 11.551 10.3779Z" fill="black"/>
<path d="M14.8787 9.29849C14.7961 9.28472 14.7067 9.27784 14.6103 9.27784C14.2525 9.27784 14.0097 9.43022 13.8819 9.73497V12H13.3362V8.80892H13.8671L13.876 9.17757C14.0549 8.89248 14.3085 8.74993 14.6369 8.74993C14.743 8.74993 14.8236 8.76369 14.8787 8.79122V9.29849Z" fill="black"/>
<path d="M17.7787 12C17.7473 11.9371 17.7217 11.825 17.702 11.6638C17.4484 11.9272 17.1456 12.059 16.7937 12.059C16.4791 12.059 16.2205 11.9705 16.018 11.7935C15.8175 11.6146 15.7172 11.3885 15.7172 11.1152C15.7172 10.7829 15.843 10.5254 16.0947 10.3425C16.3483 10.1577 16.7042 10.0653 17.1623 10.0653H17.6932V9.8146C17.6932 9.62388 17.6362 9.47249 17.5221 9.36042C17.4081 9.24638 17.24 9.18937 17.0178 9.18937C16.8232 9.18937 16.66 9.23852 16.5282 9.33683C16.3965 9.43513 16.3307 9.55409 16.3307 9.69368H15.7821C15.7821 9.53442 15.8381 9.38106 15.9502 9.2336C16.0642 9.08418 16.2176 8.96621 16.4103 8.8797C16.6049 8.79319 16.8183 8.74993 17.0503 8.74993C17.4179 8.74993 17.706 8.84234 17.9144 9.02716C18.1228 9.21001 18.2309 9.46266 18.2388 9.78511V11.2538C18.2388 11.5468 18.2762 11.7798 18.3509 11.9528V12H17.7787ZM16.8733 11.5841C17.0444 11.5841 17.2066 11.5399 17.3599 11.4514C17.5133 11.3629 17.6244 11.2479 17.6932 11.1064V10.4516H17.2656C16.5971 10.4516 16.2628 10.6473 16.2628 11.0385C16.2628 11.2096 16.3198 11.3433 16.4339 11.4396C16.5479 11.536 16.6944 11.5841 16.8733 11.5841Z" fill="black"/>
<path d="M21.4957 11.1535C21.4957 11.0061 21.4396 10.892 21.3276 10.8114C21.2175 10.7289 21.0238 10.6581 20.7466 10.5991C20.4713 10.5401 20.2521 10.4693 20.0889 10.3867C19.9277 10.3042 19.8077 10.2059 19.7291 10.0918C19.6524 9.97779 19.6141 9.84213 19.6141 9.68483C19.6141 9.42334 19.7242 9.20214 19.9444 9.02126C20.1666 8.84037 20.4497 8.74993 20.7938 8.74993C21.1555 8.74993 21.4485 8.84332 21.6726 9.03011C21.8987 9.21689 22.0118 9.45578 22.0118 9.74677H21.4632C21.4632 9.59734 21.3993 9.46856 21.2715 9.36042C21.1457 9.25228 20.9864 9.19821 20.7938 9.19821C20.5952 9.19821 20.4399 9.24147 20.3278 9.32798C20.2157 9.41449 20.1597 9.52754 20.1597 9.66714C20.1597 9.79887 20.2118 9.89816 20.316 9.96501C20.4202 10.0319 20.608 10.0958 20.8793 10.1567C21.1526 10.2177 21.3738 10.2904 21.5429 10.375C21.712 10.4595 21.8368 10.5617 21.9174 10.6817C22 10.7996 22.0413 10.9442 22.0413 11.1152C22.0413 11.4003 21.9272 11.6294 21.6992 11.8024C21.4711 11.9734 21.1752 12.059 20.8115 12.059C20.5559 12.059 20.3298 12.0137 20.1331 11.9233C19.9365 11.8328 19.7822 11.707 19.6701 11.5458C19.56 11.3826 19.505 11.2066 19.505 11.0179H20.0506C20.0604 11.2007 20.1331 11.3462 20.2688 11.4544C20.4064 11.5605 20.5873 11.6136 20.8115 11.6136C21.0179 11.6136 21.1831 11.5723 21.3069 11.4898C21.4328 11.4052 21.4957 11.2931 21.4957 11.1535Z" fill="black"/>
<path d="M23.8088 11.5546H25.6757V12H23.1423V11.5989L24.903 9.26015H23.1688V8.80892H25.5872V9.19526L23.8088 11.5546Z" fill="black"/>
<path d="M28.8057 12C28.7743 11.9371 28.7487 11.825 28.729 11.6638C28.4754 11.9272 28.1726 12.059 27.8207 12.059C27.5061 12.059 27.2476 11.9705 27.045 11.7935C26.8445 11.6146 26.7442 11.3885 26.7442 11.1152C26.7442 10.7829 26.8701 10.5254 27.1217 10.3425C27.3754 10.1577 27.7312 10.0653 28.1893 10.0653H28.7202V9.8146C28.7202 9.62388 28.6632 9.47249 28.5491 9.36042C28.4351 9.24638 28.267 9.18937 28.0448 9.18937C27.8502 9.18937 27.687 9.23852 27.5553 9.33683C27.4235 9.43513 27.3577 9.55409 27.3577 9.69368H26.8091C26.8091 9.53442 26.8651 9.38106 26.9772 9.2336C27.0912 9.08418 27.2446 8.96621 27.4373 8.8797C27.6319 8.79319 27.8453 8.74993 28.0773 8.74993C28.4449 8.74993 28.733 8.84234 28.9414 9.02716C29.1498 9.21001 29.2579 9.46266 29.2658 9.78511V11.2538C29.2658 11.5468 29.3032 11.7798 29.3779 11.9528V12H28.8057ZM27.9003 11.5841C28.0714 11.5841 28.2336 11.5399 28.3869 11.4514C28.5403 11.3629 28.6514 11.2479 28.7202 11.1064V10.4516H28.2926C27.6241 10.4516 27.2898 10.6473 27.2898 11.0385C27.2898 11.2096 27.3468 11.3433 27.4609 11.4396C27.5749 11.536 27.7214 11.5841 27.9003 11.5841Z" fill="black"/>
<path d="M31.1778 8.80892L31.1926 9.16282C31.4266 8.88756 31.7421 8.74993 32.1393 8.74993C32.5856 8.74993 32.8894 8.92099 33.0506 9.2631C33.1568 9.10974 33.2944 8.98587 33.4635 8.89149C33.6345 8.79712 33.8361 8.74993 34.0681 8.74993C34.768 8.74993 35.1239 9.12055 35.1357 9.86179V12H34.5901V9.89423C34.5901 9.66616 34.538 9.49608 34.4338 9.38401C34.3296 9.26998 34.1546 9.21296 33.9088 9.21296C33.7063 9.21296 33.5382 9.27391 33.4045 9.39581C33.2708 9.51575 33.1931 9.67795 33.1715 9.88243V12H32.623V9.90897C32.623 9.44496 32.3959 9.21296 31.9417 9.21296C31.5839 9.21296 31.3391 9.36534 31.2073 9.67009V12H30.6617V8.80892H31.1778Z" fill="black"/>
<path d="M37.5491 11.2007L38.2923 8.80892H38.8762L37.5933 12.4925C37.3948 13.0233 37.0792 13.2888 36.6466 13.2888L36.5434 13.2799L36.3399 13.2416V12.7992L36.4874 12.811C36.6722 12.811 36.8157 12.7736 36.918 12.6989C37.0222 12.6242 37.1077 12.4876 37.1745 12.289L37.2955 11.9646L36.1571 8.80892H36.7528L37.5491 11.2007Z" fill="black"/>
<path d="M44.6468 10.4398C44.6468 10.9255 44.5357 11.3167 44.3135 11.6136C44.0914 11.9105 43.7905 12.059 43.4111 12.059C43.0238 12.059 42.719 11.9361 42.4968 11.6903V13.2268H41.9512V8.80892H42.4496L42.4762 9.16282C42.6984 8.88756 43.007 8.74993 43.4022 8.74993C43.7856 8.74993 44.0884 8.89444 44.3106 9.18347C44.5347 9.47249 44.6468 9.87457 44.6468 10.3897V10.4398ZM44.1012 10.3779C44.1012 10.0181 44.0245 9.73399 43.8712 9.52558C43.7178 9.31717 43.5074 9.21296 43.24 9.21296C42.9097 9.21296 42.662 9.35944 42.4968 9.65239V11.1771C42.66 11.4681 42.9097 11.6136 43.2459 11.6136C43.5074 11.6136 43.7149 11.5104 43.8682 11.304C44.0235 11.0955 44.1012 10.7869 44.1012 10.3779Z" fill="black"/>
<path d="M45.7419 10.375C45.7419 10.0623 45.8029 9.78118 45.9248 9.53148C46.0486 9.28177 46.2197 9.08909 46.4379 8.95343C46.6581 8.81776 46.9088 8.74993 47.19 8.74993C47.6245 8.74993 47.9755 8.90034 48.2428 9.20116C48.5122 9.50198 48.6469 9.90209 48.6469 10.4015V10.4398C48.6469 10.7505 48.5869 11.0297 48.467 11.2774C48.349 11.5232 48.179 11.7149 47.9568 11.8525C47.7366 11.9901 47.4829 12.059 47.1959 12.059C46.7633 12.059 46.4124 11.9085 46.143 11.6077C45.8756 11.3069 45.7419 10.9088 45.7419 10.4133V10.375ZM46.2905 10.4398C46.2905 10.7937 46.3721 11.0778 46.5353 11.2922C46.7004 11.5065 46.9206 11.6136 47.1959 11.6136C47.4731 11.6136 47.6933 11.5055 47.8565 11.2892C48.0197 11.071 48.1013 10.7662 48.1013 10.375C48.1013 10.025 48.0177 9.74185 47.8506 9.52558C47.6854 9.30733 47.4652 9.19821 47.19 9.19821C46.9206 9.19821 46.7034 9.30537 46.5382 9.51968C46.373 9.73399 46.2905 10.0407 46.2905 10.4398Z" fill="black"/>
<path d="M50.3908 8.80892L50.4085 9.21001C50.6523 8.90329 50.9708 8.74993 51.3641 8.74993C52.0385 8.74993 52.3786 9.13038 52.3845 9.89128V12H51.8389V9.88833C51.8369 9.65829 51.7838 9.48822 51.6796 9.37812C51.5774 9.26801 51.4172 9.21296 51.1989 9.21296C51.022 9.21296 50.8666 9.26015 50.7329 9.35452C50.5992 9.4489 50.495 9.57276 50.4203 9.72612V12H49.8747V8.80892H50.3908Z" fill="black"/>
<path d="M53.6064 10.375C53.6064 10.0623 53.6674 9.78118 53.7893 9.53148C53.9131 9.28177 54.0842 9.08909 54.3024 8.95343C54.5226 8.81776 54.7733 8.74993 55.0545 8.74993C55.489 8.74993 55.84 8.90034 56.1074 9.20116C56.3767 9.50198 56.5114 9.90209 56.5114 10.4015V10.4398C56.5114 10.7505 56.4514 11.0297 56.3315 11.2774C56.2135 11.5232 56.0435 11.7149 55.8213 11.8525C55.6011 11.9901 55.3474 12.059 55.0604 12.059C54.6278 12.059 54.2769 11.9085 54.0075 11.6077C53.7401 11.3069 53.6064 10.9088 53.6064 10.4133V10.375ZM54.155 10.4398C54.155 10.7937 54.2366 11.0778 54.3998 11.2922C54.5649 11.5065 54.7851 11.6136 55.0604 11.6136C55.3376 11.6136 55.5578 11.5055 55.721 11.2892C55.8842 11.071 55.9658 10.7662 55.9658 10.375C55.9658 10.025 55.8822 9.74185 55.7151 9.52558C55.55 9.30733 55.3297 9.19821 55.0545 9.19821C54.7851 9.19821 54.5679 9.30537 54.4027 9.51968C54.2375 9.73399 54.155 10.0407 54.155 10.4398Z" fill="black"/>
<path d="M60.5646 11.2479L61.178 8.80892H61.7236L60.7946 12H60.3522L59.5766 9.58161L58.8216 12H58.3792L57.4531 8.80892H57.9958L58.624 11.1978L59.3672 8.80892H59.8066L60.5646 11.2479Z" fill="black"/>
<path d="M63.3407 8.80892L63.3584 9.21001C63.6022 8.90329 63.9207 8.74993 64.314 8.74993C64.9884 8.74993 65.3285 9.13038 65.3344 9.89128V12H64.7888V9.88833C64.7868 9.65829 64.7337 9.48822 64.6295 9.37812C64.5273 9.26801 64.367 9.21296 64.1488 9.21296C63.9719 9.21296 63.8165 9.26015 63.6828 9.35452C63.5491 9.4489 63.4449 9.57276 63.3702 9.72612V12H62.8246V8.80892H63.3407Z" fill="black"/>
<path d="M67.2936 12H66.748V8.80892H67.2936V12ZM66.7038 7.96249C66.7038 7.87401 66.7303 7.7993 66.7834 7.73835C66.8385 7.6774 66.9191 7.64692 67.0252 7.64692C67.1314 7.64692 67.212 7.6774 67.2671 7.73835C67.3221 7.7993 67.3497 7.87401 67.3497 7.96249C67.3497 8.05097 67.3221 8.1247 67.2671 8.18368C67.212 8.24267 67.1314 8.27216 67.0252 8.27216C66.9191 8.27216 66.8385 8.24267 66.7834 8.18368C66.7303 8.1247 66.7038 8.05097 66.7038 7.96249Z" fill="black"/>
<path d="M70.0373 12.059C69.6048 12.059 69.2528 11.9174 68.9815 11.6343C68.7102 11.3492 68.5745 10.9687 68.5745 10.4929V10.3926C68.5745 10.0761 68.6345 9.79396 68.7544 9.54622C68.8763 9.29652 69.0454 9.10187 69.2617 8.96228C69.4799 8.82071 69.7159 8.74993 69.9695 8.74993C70.3844 8.74993 70.7068 8.88658 70.9368 9.15987C71.1669 9.43317 71.2819 9.82443 71.2819 10.3337V10.5608H69.1201C69.128 10.8753 69.2194 11.13 69.3944 11.3246C69.5714 11.5173 69.7955 11.6136 70.0668 11.6136C70.2595 11.6136 70.4227 11.5743 70.5564 11.4957C70.6901 11.417 70.8071 11.3128 70.9074 11.183L71.2406 11.4426C70.9732 11.8535 70.5721 12.059 70.0373 12.059ZM69.9695 9.19821C69.7493 9.19821 69.5645 9.27883 69.4151 9.44005C69.2656 9.59931 69.1732 9.82345 69.1378 10.1125H70.7363V10.0712C70.7206 9.79395 70.6459 9.57965 70.5122 9.42825C70.3785 9.27489 70.1976 9.19821 69.9695 9.19821Z" fill="black"/>
<path d="M73.0701 10.7878H72.5776L72.5392 7.70591H73.1114L73.0701 10.7878ZM72.5186 11.7257C72.5186 11.6372 72.5451 11.5635 72.5982 11.5045C72.6533 11.4436 72.7339 11.4131 72.84 11.4131C72.9462 11.4131 73.0268 11.4436 73.0819 11.5045C73.1369 11.5635 73.1645 11.6372 73.1645 11.7257C73.1645 11.8142 73.1369 11.8879 73.0819 11.9469C73.0268 12.0039 72.9462 12.0324 72.84 12.0324C72.7339 12.0324 72.6533 12.0039 72.5982 11.9469C72.5451 11.8879 72.5186 11.8142 72.5186 11.7257Z" fill="black"/>
<path d="M1.4982 4.99997V0.705908H2.71033C3.0839 0.705908 3.41421 0.788486 3.70127 0.953643C3.98833 1.1188 4.20952 1.35375 4.36484 1.65851C4.52214 1.96326 4.60176 2.31323 4.60373 2.70843V2.98271C4.60373 3.38773 4.52508 3.74262 4.36779 4.04737C4.21247 4.35213 3.98931 4.5861 3.69832 4.74929C3.4093 4.91248 3.0721 4.99604 2.68674 4.99997H1.4982ZM2.06445 1.17188V4.53694H2.6602C3.09668 4.53694 3.43584 4.40128 3.67768 4.12995C3.92148 3.85862 4.04338 3.47228 4.04338 2.97091V2.72022C4.04338 2.23262 3.92836 1.85414 3.69832 1.58478C3.47025 1.31345 3.14583 1.17582 2.72508 1.17188H2.06445Z" stroke="white" stroke-width="0.8" mask="url(#path-1-outside-1)"/>
<path d="M6.43319 4.55464H8.30005V4.99997H5.76667V4.59888L7.52735 2.26015H5.79321V1.80892H8.21157V2.19526L6.43319 4.55464Z" stroke="white" stroke-width="0.8" mask="url(#path-1-outside-1)"/>
<path d="M10.0528 4.99997H9.50722V1.80892H10.0528V4.99997ZM9.46298 0.96249C9.46298 0.874014 9.48952 0.7993 9.54261 0.73835C9.59766 0.677399 9.67827 0.646924 9.78445 0.646924C9.89062 0.646924 9.97123 0.677399 10.0263 0.73835C10.0813 0.7993 10.1089 0.874014 10.1089 0.96249C10.1089 1.05097 10.0813 1.1247 10.0263 1.18368C9.97123 1.24267 9.89062 1.27216 9.78445 1.27216C9.67827 1.27216 9.59766 1.24267 9.54261 1.18368C9.48952 1.1247 9.46298 1.05097 9.46298 0.96249Z" stroke="white" stroke-width="0.8" mask="url(#path-1-outside-1)"/>
<path d="M13.9998 4.44257C13.8602 4.65884 13.6774 4.82007 13.4513 4.92624H13.4542L13.2832 5.05896C13.061 5.23787 12.9499 5.41188 12.9499 5.58097C12.9499 5.72253 13.0266 5.79331 13.1799 5.79331C13.2743 5.79331 13.3726 5.76775 13.4749 5.71663L13.5132 6.07349C13.3756 6.16 13.2183 6.20325 13.0413 6.20325C12.8663 6.20325 12.7277 6.15213 12.6255 6.04989C12.5252 5.94765 12.4751 5.81199 12.4751 5.6429C12.4751 5.43056 12.5714 5.23591 12.7641 5.05896C12.3355 5.05109 11.9894 4.9056 11.726 4.62247C11.4645 4.33738 11.3337 3.95988 11.3337 3.48997V3.39265C11.3337 3.0761 11.3937 2.79396 11.5136 2.54622C11.6355 2.29652 11.8046 2.10187 12.0209 1.96228C12.2391 1.82071 12.4751 1.74993 12.7287 1.74993C13.1436 1.74993 13.466 1.88658 13.6961 2.15987C13.9261 2.43317 14.0411 2.82443 14.0411 3.33366V3.56075H11.8793C11.8872 3.87534 11.9786 4.12995 12.1536 4.3246C12.3306 4.51728 12.5547 4.61362 12.826 4.61362C13.0187 4.61362 13.1819 4.5743 13.3156 4.49565C13.4493 4.41701 13.5663 4.3128 13.6666 4.18304L13.9998 4.44257ZM12.7287 2.19821C12.5085 2.19821 12.3237 2.27882 12.1743 2.44005C12.0248 2.59931 11.9324 2.82345 11.897 3.11247H13.4955V3.07118C13.4798 2.79395 13.4051 2.57965 13.2714 2.42825C13.1377 2.27489 12.9568 2.19821 12.7287 2.19821Z" stroke="white" stroke-width="0.8" mask="url(#path-1-outside-1)"/>
<path d="M16.1095 3.52241L15.7673 3.87927V4.99997H15.2217V0.469971H15.7673V3.20979L16.0593 2.85884L17.0532 1.80892H17.7168L16.4752 3.14196L17.8613 4.99997H17.2213L16.1095 3.52241Z" stroke="white" stroke-width="0.8" mask="url(#path-1-outside-1)"/>
<path d="M20.7938 4.6844C20.5814 4.9341 20.2698 5.05896 19.8589 5.05896C19.5187 5.05896 19.2592 4.96065 19.0803 4.76403C18.9033 4.56545 18.8139 4.2725 18.8119 3.88517V1.80892H19.3575V3.87042C19.3575 4.35409 19.5541 4.59593 19.9473 4.59593C20.3642 4.59593 20.6414 4.4406 20.779 4.12995V1.80892H21.3246V4.99997H20.8056L20.7938 4.6844Z" stroke="white" stroke-width="0.8" mask="url(#path-1-outside-1)"/>
<path d="M23.2632 1.80892V5.36862C23.2632 5.98206 22.985 6.28878 22.4286 6.28878C22.3086 6.28878 22.1976 6.27108 22.0953 6.23569V5.79921C22.1582 5.81494 22.2408 5.8228 22.343 5.8228C22.4649 5.8228 22.5574 5.78938 22.6203 5.72253C22.6852 5.65765 22.7176 5.54361 22.7176 5.38042V1.80892H23.2632ZM22.6616 0.96249C22.6616 0.87598 22.6881 0.802249 22.7412 0.741299C22.7962 0.678382 22.8759 0.646924 22.9801 0.646924C23.0862 0.646924 23.1669 0.677399 23.2219 0.73835C23.277 0.7993 23.3045 0.874014 23.3045 0.96249C23.3045 1.05097 23.277 1.1247 23.2219 1.18368C23.1669 1.24267 23.0862 1.27216 22.9801 1.27216C22.8739 1.27216 22.7943 1.24267 22.7412 1.18368C22.6881 1.1247 22.6616 1.05097 22.6616 0.96249Z" stroke="white" stroke-width="0.8" mask="url(#path-1-outside-1)"/>
<path d="M26.0128 5.05896C25.5803 5.05896 25.2283 4.91739 24.957 4.63427C24.6857 4.34918 24.55 3.96873 24.55 3.49292V3.39265C24.55 3.0761 24.61 2.79396 24.7299 2.54622C24.8518 2.29652 25.0209 2.10187 25.2372 1.96228C25.4554 1.82071 25.6914 1.74993 25.945 1.74993C26.3598 1.74993 26.6823 1.88658 26.9123 2.15987C27.1424 2.43317 27.2574 2.82443 27.2574 3.33366V3.56075H25.0956C25.1035 3.87534 25.1949 4.12995 25.3699 4.3246C25.5468 4.51728 25.771 4.61362 26.0423 4.61362C26.235 4.61362 26.3982 4.5743 26.5319 4.49565C26.6656 4.41701 26.7826 4.3128 26.8828 4.18304L27.2161 4.44257C26.9487 4.85349 26.5476 5.05896 26.0128 5.05896ZM25.945 2.19821C25.7248 2.19821 25.54 2.27882 25.3905 2.44005C25.2411 2.59931 25.1487 2.82345 25.1133 3.11247H26.7118V3.07118C26.6961 2.79395 26.6213 2.57965 26.4876 2.42825C26.3539 2.27489 26.1731 2.19821 25.945 2.19821Z" stroke="white" stroke-width="0.8" mask="url(#path-1-outside-1)"/>
<path d="M28.9482 1.80892L28.963 2.16282C29.197 1.88756 29.5125 1.74993 29.9097 1.74993C30.356 1.74993 30.6598 1.92099 30.821 2.2631C30.9272 2.10974 31.0648 1.98587 31.2339 1.89149C31.4049 1.79712 31.6065 1.74993 31.8385 1.74993C32.5384 1.74993 32.8943 2.12055 32.9061 2.86179V4.99997H32.3605V2.89423C32.3605 2.66616 32.3084 2.49608 32.2042 2.38401C32.1 2.26998 31.925 2.21296 31.6792 2.21296C31.4767 2.21296 31.3086 2.27391 31.1749 2.39581C31.0412 2.51575 30.9635 2.67795 30.9419 2.88243V4.99997H30.3934V2.90897C30.3934 2.44496 30.1663 2.21296 29.7121 2.21296C29.3542 2.21296 29.1095 2.36534 28.9777 2.67009V4.99997H28.4321V1.80892H28.9482Z" stroke="white" stroke-width="0.8" mask="url(#path-1-outside-1)"/>
<path d="M35.3195 4.20073L36.0627 1.80892H36.6466L35.3637 5.49249C35.1651 6.02335 34.8496 6.28878 34.417 6.28878L34.3138 6.27993L34.1103 6.24159V5.79921L34.2578 5.81101C34.4426 5.81101 34.5861 5.77365 34.6884 5.69894C34.7926 5.62422 34.8781 5.48758 34.9449 5.28899L35.0659 4.96458L33.9275 1.80892H34.5232L35.3195 4.20073Z" stroke="white" stroke-width="0.8" mask="url(#path-1-outside-1)"/>
<path d="M40.2348 4.55464H42.1016V4.99997H39.5683V4.59888L41.3289 2.26015H39.5948V1.80892H42.0132V2.19526L40.2348 4.55464Z" stroke="white" stroke-width="0.8" mask="url(#path-1-outside-1)"/>
<path d="M45.2317 4.99997C45.2002 4.93705 45.1747 4.82498 45.155 4.66376C44.9014 4.92722 44.5986 5.05896 44.2467 5.05896C43.9321 5.05896 43.6735 4.97048 43.471 4.79353C43.2705 4.61461 43.1702 4.3885 43.1702 4.11521C43.1702 3.78293 43.296 3.52536 43.5477 3.34251C43.8013 3.15769 44.1572 3.06528 44.6153 3.06528H45.1462V2.8146C45.1462 2.62388 45.0891 2.47249 44.9751 2.36042C44.8611 2.24638 44.693 2.18937 44.4708 2.18937C44.2762 2.18937 44.113 2.23852 43.9812 2.33683C43.8495 2.43513 43.7836 2.55409 43.7836 2.69368H43.2351C43.2351 2.53442 43.2911 2.38106 43.4032 2.2336C43.5172 2.08418 43.6706 1.96621 43.8633 1.8797C44.0579 1.79319 44.2712 1.74993 44.5032 1.74993C44.8709 1.74993 45.1589 1.84234 45.3674 2.02716C45.5758 2.21001 45.6839 2.46266 45.6918 2.78511V4.25382C45.6918 4.54677 45.7291 4.77976 45.8038 4.95278V4.99997H45.2317ZM44.3263 4.58413C44.4973 4.58413 44.6595 4.53989 44.8129 4.45142C44.9663 4.36294 45.0774 4.24792 45.1462 4.10636V3.45163H44.7185C44.05 3.45163 43.7158 3.64726 43.7158 4.03853C43.7158 4.20958 43.7728 4.34328 43.8869 4.43962C44.0009 4.53596 44.1474 4.58413 44.3263 4.58413Z" stroke="white" stroke-width="0.8" mask="url(#path-1-outside-1)"/>
<path d="M48.9879 3.37495C48.9879 3.06233 49.0489 2.78118 49.1708 2.53147C49.2947 2.28177 49.4657 2.08909 49.684 1.95343C49.9042 1.81776 50.1548 1.74993 50.436 1.74993C50.8705 1.74993 51.2215 1.90034 51.4889 2.20116C51.7582 2.50198 51.8929 2.90209 51.8929 3.40149V3.43983C51.8929 3.75048 51.833 4.02968 51.713 4.27741C51.595 4.52318 51.425 4.71488 51.2028 4.85251C50.9826 4.99014 50.729 5.05896 50.4419 5.05896C50.0094 5.05896 49.6584 4.90854 49.389 4.60772C49.1216 4.3069 48.9879 3.90876 48.9879 3.41329V3.37495ZM49.5365 3.43983C49.5365 3.79374 49.6181 4.07785 49.7813 4.29216C49.9464 4.50647 50.1666 4.61362 50.4419 4.61362C50.7191 4.61362 50.9393 4.50548 51.1025 4.28921C51.2657 4.07097 51.3473 3.76621 51.3473 3.37495C51.3473 3.02498 51.2638 2.74185 51.0966 2.52558C50.9315 2.30733 50.7113 2.19821 50.436 2.19821C50.1666 2.19821 49.9494 2.30537 49.7842 2.51968C49.6191 2.73399 49.5365 3.04071 49.5365 3.43983Z" stroke="white" stroke-width="0.8" mask="url(#path-1-outside-1)"/>
<path d="M52.988 3.3779C52.988 2.88833 53.104 2.4951 53.336 2.19821C53.568 1.89936 53.8718 1.74993 54.2473 1.74993C54.6209 1.74993 54.9168 1.87773 55.1351 2.13333V0.469971H55.6807V4.99997H55.1793L55.1527 4.65786C54.9345 4.92526 54.6307 5.05896 54.2414 5.05896C53.8718 5.05896 53.57 4.90756 53.336 4.60478C53.104 4.30199 52.988 3.90679 52.988 3.41919V3.3779ZM53.5336 3.43983C53.5336 3.8016 53.6083 4.08473 53.7578 4.28921C53.9072 4.49369 54.1136 4.59593 54.3771 4.59593C54.7231 4.59593 54.9758 4.4406 55.1351 4.12995V2.66419C54.9719 2.36337 54.7212 2.21296 54.383 2.21296C54.1156 2.21296 53.9072 2.31618 53.7578 2.52263C53.6083 2.72907 53.5336 3.03481 53.5336 3.43983Z" stroke="white" stroke-width="0.8" mask="url(#path-1-outside-1)"/>
<path d="M59.899 4.24792L60.5124 1.80892H61.058L60.129 4.99997H59.6866L58.911 2.58161L58.156 4.99997H57.7136L56.7876 1.80892H57.3302L57.9584 4.19778L58.7016 1.80892H59.141L59.899 4.24792Z" stroke="white" stroke-width="0.8" mask="url(#path-1-outside-1)"/>
<path d="M62.7518 4.99997H62.2062V1.80892H62.7518V4.99997ZM62.162 0.96249C62.162 0.874014 62.1885 0.7993 62.2416 0.73835C62.2967 0.677399 62.3773 0.646924 62.4834 0.646924C62.5896 0.646924 62.6702 0.677399 62.7253 0.73835C62.7803 0.7993 62.8079 0.874014 62.8079 0.96249C62.8079 1.05097 62.7803 1.1247 62.7253 1.18368C62.6702 1.24267 62.5896 1.27216 62.4834 1.27216C62.3773 1.27216 62.2967 1.24267 62.2416 1.18368C62.1885 1.1247 62.162 1.05097 62.162 0.96249Z" stroke="white" stroke-width="0.8" mask="url(#path-1-outside-1)"/>
<path d="M65.4955 5.05896C65.063 5.05896 64.711 4.91739 64.4397 4.63427C64.1684 4.34918 64.0327 3.96873 64.0327 3.49292V3.39265C64.0327 3.0761 64.0927 2.79396 64.2126 2.54622C64.3345 2.29652 64.5036 2.10187 64.7199 1.96228C64.9381 1.82071 65.1741 1.74993 65.4277 1.74993C65.8426 1.74993 66.165 1.88658 66.3951 2.15987C66.6251 2.43317 66.7401 2.82443 66.7401 3.33366V3.56075H64.5783C64.5862 3.87534 64.6776 4.12995 64.8526 4.3246C65.0296 4.51728 65.2537 4.61362 65.525 4.61362C65.7177 4.61362 65.8809 4.5743 66.0146 4.49565C66.1483 4.41701 66.2653 4.3128 66.3656 4.18304L66.6988 4.44257C66.4314 4.85349 66.0303 5.05896 65.4955 5.05896ZM65.4277 2.19821C65.2075 2.19821 65.0227 2.27882 64.8733 2.44005C64.7238 2.59931 64.6314 2.82345 64.596 3.11247H66.1945V3.07118C66.1788 2.79395 66.1041 2.57965 65.9704 2.42825C65.8367 2.27489 65.6558 2.19821 65.4277 2.19821Z" stroke="white" stroke-width="0.8" mask="url(#path-1-outside-1)"/>
<path d="M67.7851 3.3779C67.7851 2.88833 67.9011 2.4951 68.1331 2.19821C68.3651 1.89936 68.6689 1.74993 69.0444 1.74993C69.418 1.74993 69.7139 1.87773 69.9321 2.13333V0.469971H70.4777V4.99997H69.9763L69.9498 4.65786C69.7316 4.92526 69.4278 5.05896 69.0385 5.05896C68.6689 5.05896 68.3671 4.90756 68.1331 4.60478C67.9011 4.30199 67.7851 3.90679 67.7851 3.41919V3.3779ZM68.3307 3.43983C68.3307 3.8016 68.4054 4.08473 68.5548 4.28921C68.7043 4.49369 68.9107 4.59593 69.1742 4.59593C69.5202 4.59593 69.7729 4.4406 69.9321 4.12995V2.66419C69.7689 2.36337 69.5182 2.21296 69.1801 2.21296C68.9127 2.21296 68.7043 2.31618 68.5548 2.52263C68.4054 2.72907 68.3307 3.03481 68.3307 3.43983Z" stroke="white" stroke-width="0.8" mask="url(#path-1-outside-1)"/>
<path d="M72.3839 4.55464H74.2507V4.99997H71.7173V4.59888L73.478 2.26015H71.7439V1.80892H74.1622V2.19526L72.3839 4.55464Z" stroke="white" stroke-width="0.8" mask="url(#path-1-outside-1)"/>
<path d="M76.0035 4.99997H75.4579V1.80892H76.0035V4.99997ZM75.4137 0.96249C75.4137 0.874014 75.4402 0.7993 75.4933 0.73835C75.5483 0.677399 75.6289 0.646924 75.7351 0.646924C75.8413 0.646924 75.9219 0.677399 75.977 0.73835C76.032 0.7993 76.0595 0.874014 76.0595 0.96249C76.0595 1.05097 76.032 1.1247 75.977 1.18368C75.9219 1.24267 75.8413 1.27216 75.7351 1.27216C75.6289 1.27216 75.5483 1.24267 75.4933 1.18368C75.4402 1.1247 75.4137 1.05097 75.4137 0.96249Z" stroke="white" stroke-width="0.8" mask="url(#path-1-outside-1)"/>
<path d="M77.9391 1.80892L77.9568 2.21001C78.2006 1.90329 78.5191 1.74993 78.9124 1.74993C79.5867 1.74993 79.9269 2.13038 79.9328 2.89128V4.99997H79.3872V2.88833C79.3852 2.65829 79.3321 2.48822 79.2279 2.37812C79.1257 2.26801 78.9654 2.21296 78.7472 2.21296C78.5703 2.21296 78.4149 2.26015 78.2812 2.35452C78.1475 2.4489 78.0433 2.57276 77.9686 2.72612V4.99997H77.423V1.80892H77.9391Z" stroke="white" stroke-width="0.8" mask="url(#path-1-outside-1)"/>
<path d="M82.3432 4.20073L83.0865 1.80892H83.6704L82.3875 5.49249C82.1889 6.02335 81.8733 6.28878 81.4408 6.28878L81.3376 6.27993L81.1341 6.24159V5.79921L81.2815 5.81101C81.4663 5.81101 81.6099 5.77365 81.7121 5.69894C81.8163 5.62422 81.9018 5.48758 81.9687 5.28899L82.0896 4.96458L80.9512 1.80892H81.547L82.3432 4.20073Z" stroke="white" stroke-width="0.8" mask="url(#path-1-outside-1)"/>
<path d="M85.3141 3.78784H84.8215L84.7832 0.705908H85.3553L85.3141 3.78784ZM84.7626 4.72569C84.7626 4.63722 84.7891 4.56349 84.8422 4.5045C84.8972 4.44355 84.9778 4.41308 85.084 4.41308C85.1902 4.41308 85.2708 4.44355 85.3259 4.5045C85.3809 4.56349 85.4084 4.63722 85.4084 4.72569C85.4084 4.81417 85.3809 4.8879 85.3259 4.94688C85.2708 5.0039 85.1902 5.03241 85.084 5.03241C84.9778 5.03241 84.8972 5.0039 84.8422 4.94688C84.7891 4.8879 84.7626 4.81417 84.7626 4.72569Z" stroke="white" stroke-width="0.8" mask="url(#path-1-outside-1)"/>
<path d="M1.92289 11.5369H4.37959V12H1.25342V11.5753L3.60689 8.17188H1.29176V7.70591H4.28521V8.12175L1.92289 11.5369Z" stroke="white" stroke-width="0.8" mask="url(#path-1-outside-1)"/>
<path d="M7.5421 12C7.51064 11.9371 7.48508 11.825 7.46542 11.6638C7.21178 11.9272 6.909 12.059 6.55706 12.059C6.24247 12.059 5.98393 11.9705 5.78141 11.7935C5.58087 11.6146 5.48059 11.3885 5.48059 11.1152C5.48059 10.7829 5.60643 10.5254 5.85809 10.3425C6.11173 10.1577 6.4676 10.0653 6.92571 10.0653H7.45657V9.8146C7.45657 9.62388 7.39955 9.47249 7.28551 9.36042C7.17148 9.24638 7.00337 9.18937 6.7812 9.18937C6.58655 9.18937 6.42336 9.23852 6.29163 9.33683C6.1599 9.43513 6.09403 9.55409 6.09403 9.69368H5.54548C5.54548 9.53442 5.60151 9.38106 5.71358 9.2336C5.82762 9.08418 5.98098 8.96621 6.17366 8.8797C6.36831 8.79319 6.58163 8.74993 6.81364 8.74993C7.18131 8.74993 7.46935 8.84234 7.67776 9.02716C7.88617 9.21001 7.99431 9.46266 8.00217 9.78511V11.2538C8.00217 11.5468 8.03953 11.7798 8.11424 11.9528V12H7.5421ZM6.63669 11.5841C6.80774 11.5841 6.96995 11.5399 7.12331 11.4514C7.27667 11.3629 7.38775 11.2479 7.45657 11.1064V10.4516H7.02893C6.36044 10.4516 6.0262 10.6473 6.0262 11.0385C6.0262 11.2096 6.08322 11.3433 6.19725 11.4396C6.31129 11.536 6.45777 11.5841 6.63669 11.5841Z" stroke="white" stroke-width="0.8" mask="url(#path-1-outside-1)"/>
<path d="M12.0966 10.4398C12.0966 10.9255 11.9855 11.3167 11.7634 11.6136C11.5412 11.9105 11.2404 12.059 10.8609 12.059C10.4736 12.059 10.1688 11.9361 9.94665 11.6903V13.2268H9.40105V8.80892H9.89947L9.92601 9.16282C10.1482 8.88756 10.4569 8.74993 10.8521 8.74993C11.2355 8.74993 11.5382 8.89444 11.7604 9.18347C11.9846 9.47249 12.0966 9.87457 12.0966 10.3897V10.4398ZM11.551 10.3779C11.551 10.0181 11.4743 9.73399 11.321 9.52558C11.1676 9.31717 10.9573 9.21296 10.6899 9.21296C10.3595 9.21296 10.1118 9.35944 9.94665 9.65239V11.1771C10.1098 11.4681 10.3595 11.6136 10.6958 11.6136C10.9573 11.6136 11.1647 11.5104 11.318 11.304C11.4734 11.0955 11.551 10.7869 11.551 10.3779Z" stroke="white" stroke-width="0.8" mask="url(#path-1-outside-1)"/>
<path d="M14.8787 9.29849C14.7961 9.28472 14.7067 9.27784 14.6103 9.27784C14.2525 9.27784 14.0097 9.43022 13.8819 9.73497V12H13.3362V8.80892H13.8671L13.876 9.17757C14.0549 8.89248 14.3085 8.74993 14.6369 8.74993C14.743 8.74993 14.8236 8.76369 14.8787 8.79122V9.29849Z" stroke="white" stroke-width="0.8" mask="url(#path-1-outside-1)"/>
<path d="M17.7787 12C17.7473 11.9371 17.7217 11.825 17.702 11.6638C17.4484 11.9272 17.1456 12.059 16.7937 12.059C16.4791 12.059 16.2205 11.9705 16.018 11.7935C15.8175 11.6146 15.7172 11.3885 15.7172 11.1152C15.7172 10.7829 15.843 10.5254 16.0947 10.3425C16.3483 10.1577 16.7042 10.0653 17.1623 10.0653H17.6932V9.8146C17.6932 9.62388 17.6362 9.47249 17.5221 9.36042C17.4081 9.24638 17.24 9.18937 17.0178 9.18937C16.8232 9.18937 16.66 9.23852 16.5282 9.33683C16.3965 9.43513 16.3307 9.55409 16.3307 9.69368H15.7821C15.7821 9.53442 15.8381 9.38106 15.9502 9.2336C16.0642 9.08418 16.2176 8.96621 16.4103 8.8797C16.6049 8.79319 16.8183 8.74993 17.0503 8.74993C17.4179 8.74993 17.706 8.84234 17.9144 9.02716C18.1228 9.21001 18.2309 9.46266 18.2388 9.78511V11.2538C18.2388 11.5468 18.2762 11.7798 18.3509 11.9528V12H17.7787ZM16.8733 11.5841C17.0444 11.5841 17.2066 11.5399 17.3599 11.4514C17.5133 11.3629 17.6244 11.2479 17.6932 11.1064V10.4516H17.2656C16.5971 10.4516 16.2628 10.6473 16.2628 11.0385C16.2628 11.2096 16.3198 11.3433 16.4339 11.4396C16.5479 11.536 16.6944 11.5841 16.8733 11.5841Z" stroke="white" stroke-width="0.8" mask="url(#path-1-outside-1)"/>
<path d="M21.4957 11.1535C21.4957 11.0061 21.4396 10.892 21.3276 10.8114C21.2175 10.7289 21.0238 10.6581 20.7466 10.5991C20.4713 10.5401 20.2521 10.4693 20.0889 10.3867C19.9277 10.3042 19.8077 10.2059 19.7291 10.0918C19.6524 9.97779 19.6141 9.84213 19.6141 9.68483C19.6141 9.42334 19.7242 9.20214 19.9444 9.02126C20.1666 8.84037 20.4497 8.74993 20.7938 8.74993C21.1555 8.74993 21.4485 8.84332 21.6726 9.03011C21.8987 9.21689 22.0118 9.45578 22.0118 9.74677H21.4632C21.4632 9.59734 21.3993 9.46856 21.2715 9.36042C21.1457 9.25228 20.9864 9.19821 20.7938 9.19821C20.5952 9.19821 20.4399 9.24147 20.3278 9.32798C20.2157 9.41449 20.1597 9.52754 20.1597 9.66714C20.1597 9.79887 20.2118 9.89816 20.316 9.96501C20.4202 10.0319 20.608 10.0958 20.8793 10.1567C21.1526 10.2177 21.3738 10.2904 21.5429 10.375C21.712 10.4595 21.8368 10.5617 21.9174 10.6817C22 10.7996 22.0413 10.9442 22.0413 11.1152C22.0413 11.4003 21.9272 11.6294 21.6992 11.8024C21.4711 11.9734 21.1752 12.059 20.8115 12.059C20.5559 12.059 20.3298 12.0137 20.1331 11.9233C19.9365 11.8328 19.7822 11.707 19.6701 11.5458C19.56 11.3826 19.505 11.2066 19.505 11.0179H20.0506C20.0604 11.2007 20.1331 11.3462 20.2688 11.4544C20.4064 11.5605 20.5873 11.6136 20.8115 11.6136C21.0179 11.6136 21.1831 11.5723 21.3069 11.4898C21.4328 11.4052 21.4957 11.2931 21.4957 11.1535Z" stroke="white" stroke-width="0.8" mask="url(#path-1-outside-1)"/>
<path d="M23.8088 11.5546H25.6757V12H23.1423V11.5989L24.903 9.26015H23.1688V8.80892H25.5872V9.19526L23.8088 11.5546Z" stroke="white" stroke-width="0.8" mask="url(#path-1-outside-1)"/>
<path d="M28.8057 12C28.7743 11.9371 28.7487 11.825 28.729 11.6638C28.4754 11.9272 28.1726 12.059 27.8207 12.059C27.5061 12.059 27.2476 11.9705 27.045 11.7935C26.8445 11.6146 26.7442 11.3885 26.7442 11.1152C26.7442 10.7829 26.8701 10.5254 27.1217 10.3425C27.3754 10.1577 27.7312 10.0653 28.1893 10.0653H28.7202V9.8146C28.7202 9.62388 28.6632 9.47249 28.5491 9.36042C28.4351 9.24638 28.267 9.18937 28.0448 9.18937C27.8502 9.18937 27.687 9.23852 27.5553 9.33683C27.4235 9.43513 27.3577 9.55409 27.3577 9.69368H26.8091C26.8091 9.53442 26.8651 9.38106 26.9772 9.2336C27.0912 9.08418 27.2446 8.96621 27.4373 8.8797C27.6319 8.79319 27.8453 8.74993 28.0773 8.74993C28.4449 8.74993 28.733 8.84234 28.9414 9.02716C29.1498 9.21001 29.2579 9.46266 29.2658 9.78511V11.2538C29.2658 11.5468 29.3032 11.7798 29.3779 11.9528V12H28.8057ZM27.9003 11.5841C28.0714 11.5841 28.2336 11.5399 28.3869 11.4514C28.5403 11.3629 28.6514 11.2479 28.7202 11.1064V10.4516H28.2926C27.6241 10.4516 27.2898 10.6473 27.2898 11.0385C27.2898 11.2096 27.3468 11.3433 27.4609 11.4396C27.5749 11.536 27.7214 11.5841 27.9003 11.5841Z" stroke="white" stroke-width="0.8" mask="url(#path-1-outside-1)"/>
<path d="M31.1778 8.80892L31.1926 9.16282C31.4266 8.88756 31.7421 8.74993 32.1393 8.74993C32.5856 8.74993 32.8894 8.92099 33.0506 9.2631C33.1568 9.10974 33.2944 8.98587 33.4635 8.89149C33.6345 8.79712 33.8361 8.74993 34.0681 8.74993C34.768 8.74993 35.1239 9.12055 35.1357 9.86179V12H34.5901V9.89423C34.5901 9.66616 34.538 9.49608 34.4338 9.38401C34.3296 9.26998 34.1546 9.21296 33.9088 9.21296C33.7063 9.21296 33.5382 9.27391 33.4045 9.39581C33.2708 9.51575 33.1931 9.67795 33.1715 9.88243V12H32.623V9.90897C32.623 9.44496 32.3959 9.21296 31.9417 9.21296C31.5839 9.21296 31.3391 9.36534 31.2073 9.67009V12H30.6617V8.80892H31.1778Z" stroke="white" stroke-width="0.8" mask="url(#path-1-outside-1)"/>
<path d="M37.5491 11.2007L38.2923 8.80892H38.8762L37.5933 12.4925C37.3948 13.0233 37.0792 13.2888 36.6466 13.2888L36.5434 13.2799L36.3399 13.2416V12.7992L36.4874 12.811C36.6722 12.811 36.8157 12.7736 36.918 12.6989C37.0222 12.6242 37.1077 12.4876 37.1745 12.289L37.2955 11.9646L36.1571 8.80892H36.7528L37.5491 11.2007Z" stroke="white" stroke-width="0.8" mask="url(#path-1-outside-1)"/>
<path d="M44.6468 10.4398C44.6468 10.9255 44.5357 11.3167 44.3135 11.6136C44.0914 11.9105 43.7905 12.059 43.4111 12.059C43.0238 12.059 42.719 11.9361 42.4968 11.6903V13.2268H41.9512V8.80892H42.4496L42.4762 9.16282C42.6984 8.88756 43.007 8.74993 43.4022 8.74993C43.7856 8.74993 44.0884 8.89444 44.3106 9.18347C44.5347 9.47249 44.6468 9.87457 44.6468 10.3897V10.4398ZM44.1012 10.3779C44.1012 10.0181 44.0245 9.73399 43.8712 9.52558C43.7178 9.31717 43.5074 9.21296 43.24 9.21296C42.9097 9.21296 42.662 9.35944 42.4968 9.65239V11.1771C42.66 11.4681 42.9097 11.6136 43.2459 11.6136C43.5074 11.6136 43.7149 11.5104 43.8682 11.304C44.0235 11.0955 44.1012 10.7869 44.1012 10.3779Z" stroke="white" stroke-width="0.8" mask="url(#path-1-outside-1)"/>
<path d="M45.7419 10.375C45.7419 10.0623 45.8029 9.78118 45.9248 9.53148C46.0486 9.28177 46.2197 9.08909 46.4379 8.95343C46.6581 8.81776 46.9088 8.74993 47.19 8.74993C47.6245 8.74993 47.9755 8.90034 48.2428 9.20116C48.5122 9.50198 48.6469 9.90209 48.6469 10.4015V10.4398C48.6469 10.7505 48.5869 11.0297 48.467 11.2774C48.349 11.5232 48.179 11.7149 47.9568 11.8525C47.7366 11.9901 47.4829 12.059 47.1959 12.059C46.7633 12.059 46.4124 11.9085 46.143 11.6077C45.8756 11.3069 45.7419 10.9088 45.7419 10.4133V10.375ZM46.2905 10.4398C46.2905 10.7937 46.3721 11.0778 46.5353 11.2922C46.7004 11.5065 46.9206 11.6136 47.1959 11.6136C47.4731 11.6136 47.6933 11.5055 47.8565 11.2892C48.0197 11.071 48.1013 10.7662 48.1013 10.375C48.1013 10.025 48.0177 9.74185 47.8506 9.52558C47.6854 9.30733 47.4652 9.19821 47.19 9.19821C46.9206 9.19821 46.7034 9.30537 46.5382 9.51968C46.373 9.73399 46.2905 10.0407 46.2905 10.4398Z" stroke="white" stroke-width="0.8" mask="url(#path-1-outside-1)"/>
<path d="M50.3908 8.80892L50.4085 9.21001C50.6523 8.90329 50.9708 8.74993 51.3641 8.74993C52.0385 8.74993 52.3786 9.13038 52.3845 9.89128V12H51.8389V9.88833C51.8369 9.65829 51.7838 9.48822 51.6796 9.37812C51.5774 9.26801 51.4172 9.21296 51.1989 9.21296C51.022 9.21296 50.8666 9.26015 50.7329 9.35452C50.5992 9.4489 50.495 9.57276 50.4203 9.72612V12H49.8747V8.80892H50.3908Z" stroke="white" stroke-width="0.8" mask="url(#path-1-outside-1)"/>
<path d="M53.6064 10.375C53.6064 10.0623 53.6674 9.78118 53.7893 9.53148C53.9131 9.28177 54.0842 9.08909 54.3024 8.95343C54.5226 8.81776 54.7733 8.74993 55.0545 8.74993C55.489 8.74993 55.84 8.90034 56.1074 9.20116C56.3767 9.50198 56.5114 9.90209 56.5114 10.4015V10.4398C56.5114 10.7505 56.4514 11.0297 56.3315 11.2774C56.2135 11.5232 56.0435 11.7149 55.8213 11.8525C55.6011 11.9901 55.3474 12.059 55.0604 12.059C54.6278 12.059 54.2769 11.9085 54.0075 11.6077C53.7401 11.3069 53.6064 10.9088 53.6064 10.4133V10.375ZM54.155 10.4398C54.155 10.7937 54.2366 11.0778 54.3998 11.2922C54.5649 11.5065 54.7851 11.6136 55.0604 11.6136C55.3376 11.6136 55.5578 11.5055 55.721 11.2892C55.8842 11.071 55.9658 10.7662 55.9658 10.375C55.9658 10.025 55.8822 9.74185 55.7151 9.52558C55.55 9.30733 55.3297 9.19821 55.0545 9.19821C54.7851 9.19821 54.5679 9.30537 54.4027 9.51968C54.2375 9.73399 54.155 10.0407 54.155 10.4398Z" stroke="white" stroke-width="0.8" mask="url(#path-1-outside-1)"/>
<path d="M60.5646 11.2479L61.178 8.80892H61.7236L60.7946 12H60.3522L59.5766 9.58161L58.8216 12H58.3792L57.4531 8.80892H57.9958L58.624 11.1978L59.3672 8.80892H59.8066L60.5646 11.2479Z" stroke="white" stroke-width="0.8" mask="url(#path-1-outside-1)"/>
<path d="M63.3407 8.80892L63.3584 9.21001C63.6022 8.90329 63.9207 8.74993 64.314 8.74993C64.9884 8.74993 65.3285 9.13038 65.3344 9.89128V12H64.7888V9.88833C64.7868 9.65829 64.7337 9.48822 64.6295 9.37812C64.5273 9.26801 64.367 9.21296 64.1488 9.21296C63.9719 9.21296 63.8165 9.26015 63.6828 9.35452C63.5491 9.4489 63.4449 9.57276 63.3702 9.72612V12H62.8246V8.80892H63.3407Z" stroke="white" stroke-width="0.8" mask="url(#path-1-outside-1)"/>
<path d="M67.2936 12H66.748V8.80892H67.2936V12ZM66.7038 7.96249C66.7038 7.87401 66.7303 7.7993 66.7834 7.73835C66.8385 7.6774 66.9191 7.64692 67.0252 7.64692C67.1314 7.64692 67.212 7.6774 67.2671 7.73835C67.3221 7.7993 67.3497 7.87401 67.3497 7.96249C67.3497 8.05097 67.3221 8.1247 67.2671 8.18368C67.212 8.24267 67.1314 8.27216 67.0252 8.27216C66.9191 8.27216 66.8385 8.24267 66.7834 8.18368C66.7303 8.1247 66.7038 8.05097 66.7038 7.96249Z" stroke="white" stroke-width="0.8" mask="url(#path-1-outside-1)"/>
<path d="M70.0373 12.059C69.6048 12.059 69.2528 11.9174 68.9815 11.6343C68.7102 11.3492 68.5745 10.9687 68.5745 10.4929V10.3926C68.5745 10.0761 68.6345 9.79396 68.7544 9.54622C68.8763 9.29652 69.0454 9.10187 69.2617 8.96228C69.4799 8.82071 69.7159 8.74993 69.9695 8.74993C70.3844 8.74993 70.7068 8.88658 70.9368 9.15987C71.1669 9.43317 71.2819 9.82443 71.2819 10.3337V10.5608H69.1201C69.128 10.8753 69.2194 11.13 69.3944 11.3246C69.5714 11.5173 69.7955 11.6136 70.0668 11.6136C70.2595 11.6136 70.4227 11.5743 70.5564 11.4957C70.6901 11.417 70.8071 11.3128 70.9074 11.183L71.2406 11.4426C70.9732 11.8535 70.5721 12.059 70.0373 12.059ZM69.9695 9.19821C69.7493 9.19821 69.5645 9.27883 69.4151 9.44005C69.2656 9.59931 69.1732 9.82345 69.1378 10.1125H70.7363V10.0712C70.7206 9.79395 70.6459 9.57965 70.5122 9.42825C70.3785 9.27489 70.1976 9.19821 69.9695 9.19821Z" stroke="white" stroke-width="0.8" mask="url(#path-1-outside-1)"/>
<path d="M73.0701 10.7878H72.5776L72.5392 7.70591H73.1114L73.0701 10.7878ZM72.5186 11.7257C72.5186 11.6372 72.5451 11.5635 72.5982 11.5045C72.6533 11.4436 72.7339 11.4131 72.84 11.4131C72.9462 11.4131 73.0268 11.4436 73.0819 11.5045C73.1369 11.5635 73.1645 11.6372 73.1645 11.7257C73.1645 11.8142 73.1369 11.8879 73.0819 11.9469C73.0268 12.0039 72.9462 12.0324 72.84 12.0324C72.7339 12.0324 72.6533 12.0039 72.5982 11.9469C72.5451 11.8879 72.5186 11.8142 72.5186 11.7257Z" stroke="white" stroke-width="0.8" mask="url(#path-1-outside-1)"/>
</g>
</svg>
