<svg width="57" height="14" viewBox="0 0 57 14" fill="none" xmlns="http://www.w3.org/2000/svg">
<g id="zarezerwuj">
<mask id="path-1-outside-1" maskUnits="userSpaceOnUse" x="0.108887" y="-0.530029" width="57" height="15" fill="black">
<rect fill="white" x="0.108887" y="-0.530029" width="57" height="15"/>
<path d="M1.92287 4.53694H4.37957V4.99997H1.2534V4.57528L3.60687 1.17188H1.29174V0.705908H4.2852V1.12175L1.92287 4.53694Z"/>
<path d="M7.54208 4.99997C7.51062 4.93705 7.48506 4.82498 7.4654 4.66376C7.21176 4.92722 6.90898 5.05896 6.55704 5.05896C6.24245 5.05896 5.98391 4.97048 5.78139 4.79353C5.58085 4.61461 5.48057 4.3885 5.48057 4.11521C5.48057 3.78293 5.60641 3.52536 5.85807 3.34251C6.11171 3.15769 6.46758 3.06528 6.92569 3.06528H7.45655V2.8146C7.45655 2.62388 7.39953 2.47249 7.28549 2.36042C7.17146 2.24638 7.00335 2.18937 6.78118 2.18937C6.58653 2.18937 6.42334 2.23852 6.29161 2.33683C6.15988 2.43513 6.09401 2.55409 6.09401 2.69368H5.54546C5.54546 2.53442 5.60149 2.38106 5.71356 2.2336C5.8276 2.08418 5.98096 1.96621 6.17364 1.8797C6.36829 1.79319 6.58161 1.74993 6.81362 1.74993C7.18129 1.74993 7.46933 1.84234 7.67774 2.02716C7.88615 2.21001 7.99429 2.46266 8.00215 2.78511V4.25382C8.00215 4.54677 8.03951 4.77976 8.11422 4.95278V4.99997H7.54208ZM6.63667 4.58413C6.80772 4.58413 6.96993 4.53989 7.12329 4.45142C7.27665 4.36294 7.38773 4.24792 7.45655 4.10636V3.45163H7.02891C6.36042 3.45163 6.02618 3.64726 6.02618 4.03853C6.02618 4.20958 6.0832 4.34328 6.19723 4.43962C6.31127 4.53596 6.45775 4.58413 6.63667 4.58413Z"/>
<path d="M10.9435 2.29849C10.8609 2.28472 10.7714 2.27784 10.6751 2.27784C10.3173 2.27784 10.0744 2.43022 9.94663 2.73497V4.99997H9.40103V1.80892H9.93189L9.94073 2.17757C10.1197 1.89248 10.3733 1.74993 10.7016 1.74993C10.8078 1.74993 10.8884 1.76369 10.9435 1.79122V2.29849Z"/>
<path d="M13.2566 5.05896C12.824 5.05896 12.4721 4.91739 12.2008 4.63427C11.9295 4.34918 11.7938 3.96873 11.7938 3.49292V3.39265C11.7938 3.0761 11.8538 2.79396 11.9737 2.54622C12.0956 2.29652 12.2647 2.10187 12.481 1.96228C12.6992 1.82071 12.9351 1.74993 13.1888 1.74993C13.6036 1.74993 13.9261 1.88658 14.1561 2.15987C14.3862 2.43317 14.5012 2.82443 14.5012 3.33366V3.56075H12.3394C12.3473 3.87534 12.4387 4.12995 12.6137 4.3246C12.7906 4.51728 13.0148 4.61362 13.2861 4.61362C13.4788 4.61362 13.642 4.5743 13.7757 4.49565C13.9094 4.41701 14.0263 4.3128 14.1266 4.18304L14.4599 4.44257C14.1925 4.85349 13.7914 5.05896 13.2566 5.05896ZM13.1888 2.19821C12.9686 2.19821 12.7837 2.27882 12.6343 2.44005C12.4849 2.59931 12.3925 2.82345 12.3571 3.11247H13.9556V3.07118C13.9398 2.79395 13.8651 2.57965 13.7314 2.42825C13.5977 2.27489 13.4168 2.19821 13.1888 2.19821Z"/>
<path d="M16.192 4.55464H18.0589V4.99997H15.5255V4.59888L17.2862 2.26015H15.552V1.80892H17.9704V2.19526L16.192 4.55464Z"/>
<path d="M20.4959 5.05896C20.0633 5.05896 19.7114 4.91739 19.4401 4.63427C19.1687 4.34918 19.0331 3.96873 19.0331 3.49292V3.39265C19.0331 3.0761 19.093 2.79396 19.213 2.54622C19.3349 2.29652 19.504 2.10187 19.7202 1.96228C19.9385 1.82071 20.1744 1.74993 20.428 1.74993C20.8429 1.74993 21.1653 1.88658 21.3954 2.15987C21.6254 2.43317 21.7404 2.82443 21.7404 3.33366V3.56075H19.5787C19.5865 3.87534 19.678 4.12995 19.8529 4.3246C20.0299 4.51728 20.254 4.61362 20.5254 4.61362C20.718 4.61362 20.8812 4.5743 21.0149 4.49565C21.1486 4.41701 21.2656 4.3128 21.3659 4.18304L21.6992 4.44257C21.4318 4.85349 21.0307 5.05896 20.4959 5.05896ZM20.428 2.19821C20.2078 2.19821 20.023 2.27882 19.8736 2.44005C19.7242 2.59931 19.6317 2.82345 19.5964 3.11247H21.1948V3.07118C21.1791 2.79395 21.1044 2.57965 20.9707 2.42825C20.837 2.27489 20.6561 2.19821 20.428 2.19821Z"/>
<path d="M24.4606 2.29849C24.378 2.28472 24.2885 2.27784 24.1922 2.27784C23.8343 2.27784 23.5915 2.43022 23.4637 2.73497V4.99997H22.9181V1.80892H23.449L23.4578 2.17757C23.6367 1.89248 23.8904 1.74993 24.2187 1.74993C24.3249 1.74993 24.4055 1.76369 24.4606 1.79122V2.29849Z"/>
<path d="M28.3869 4.24792L29.0004 1.80892H29.546L28.617 4.99997H28.1746L27.3989 2.58161L26.6439 4.99997H26.2015L25.2755 1.80892H25.8181L26.4463 4.19778L27.1895 1.80892H27.629L28.3869 4.24792Z"/>
<path d="M32.617 4.6844C32.4047 4.9341 32.0931 5.05896 31.6821 5.05896C31.342 5.05896 31.0825 4.96065 30.9035 4.76403C30.7266 4.56545 30.6371 4.2725 30.6352 3.88517V1.80892H31.1808V3.87042C31.1808 4.35409 31.3774 4.59593 31.7706 4.59593C32.1874 4.59593 32.4647 4.4406 32.6023 4.12995V1.80892H33.1479V4.99997H32.6288L32.617 4.6844Z"/>
<path d="M35.0865 1.80892V5.36862C35.0865 5.98206 34.8083 6.28878 34.2519 6.28878C34.1319 6.28878 34.0208 6.27108 33.9186 6.23569V5.79921C33.9815 5.81494 34.0641 5.8228 34.1663 5.8228C34.2882 5.8228 34.3806 5.78938 34.4436 5.72253C34.5084 5.65765 34.5409 5.54361 34.5409 5.38042V1.80892H35.0865ZM34.4848 0.96249C34.4848 0.87598 34.5114 0.802249 34.5645 0.741299C34.6195 0.678382 34.6992 0.646924 34.8034 0.646924C34.9095 0.646924 34.9901 0.677399 35.0452 0.73835C35.1002 0.7993 35.1278 0.874014 35.1278 0.96249C35.1278 1.05097 35.1002 1.1247 35.0452 1.18368C34.9901 1.24267 34.9095 1.27216 34.8034 1.27216C34.6972 1.27216 34.6176 1.24267 34.5645 1.18368C34.5114 1.1247 34.4848 1.05097 34.4848 0.96249Z"/>
<path d="M40.4117 4.15354C40.4117 4.00608 40.3557 3.89205 40.2436 3.81144C40.1335 3.72886 39.9398 3.65808 39.6626 3.59909C39.3873 3.54011 39.1681 3.46933 39.0049 3.38675C38.8437 3.30417 38.7238 3.20586 38.6451 3.09183C38.5684 2.97779 38.5301 2.84213 38.5301 2.68483C38.5301 2.42334 38.6402 2.20215 38.8604 2.02126C39.0826 1.84037 39.3657 1.74993 39.7098 1.74993C40.0716 1.74993 40.3645 1.84332 40.5887 2.03011C40.8148 2.21689 40.9278 2.45578 40.9278 2.74677H40.3793C40.3793 2.59734 40.3154 2.46856 40.1876 2.36042C40.0617 2.25228 39.9025 2.19821 39.7098 2.19821C39.5112 2.19821 39.3559 2.24147 39.2438 2.32798C39.1317 2.41449 39.0757 2.52754 39.0757 2.66714C39.0757 2.79887 39.1278 2.89816 39.232 2.96501C39.3362 3.03186 39.524 3.09576 39.7953 3.15671C40.0686 3.21766 40.2898 3.29041 40.4589 3.37495C40.628 3.4595 40.7528 3.56174 40.8334 3.68167C40.916 3.79964 40.9573 3.94415 40.9573 4.11521C40.9573 4.4003 40.8433 4.62935 40.6152 4.80237C40.3871 4.97343 40.0912 5.05896 39.7275 5.05896C39.4719 5.05896 39.2458 5.01373 39.0492 4.92329C38.8526 4.83285 38.6982 4.70702 38.5861 4.54579C38.476 4.3826 38.421 4.20663 38.421 4.01788H38.9666C38.9764 4.20073 39.0492 4.34623 39.1848 4.45437C39.3225 4.56054 39.5033 4.61362 39.7275 4.61362C39.9339 4.61362 40.0991 4.57233 40.223 4.48976C40.3488 4.40521 40.4117 4.29314 40.4117 4.15354Z"/>
<path d="M42.9519 1.03622V1.80892H43.5477V2.23065H42.9519V4.20958C42.9519 4.33738 42.9785 4.43372 43.0316 4.4986C43.0846 4.56152 43.1751 4.59298 43.3029 4.59298C43.3658 4.59298 43.4523 4.58118 43.5624 4.55759V4.99997C43.4189 5.03929 43.2793 5.05896 43.1436 5.05896C42.8998 5.05896 42.716 4.98522 42.5921 4.83776C42.4683 4.6903 42.4063 4.48091 42.4063 4.20958V2.23065H41.8253V1.80892H42.4063V1.03622H42.9519Z"/>
<path d="M44.5278 3.37495C44.5278 3.06233 44.5887 2.78118 44.7106 2.53147C44.8345 2.28177 45.0055 2.08909 45.2238 1.95343C45.444 1.81776 45.6947 1.74993 45.9758 1.74993C46.4103 1.74993 46.7613 1.90034 47.0287 2.20116C47.2981 2.50198 47.4327 2.90209 47.4327 3.40149V3.43983C47.4327 3.75048 47.3728 4.02968 47.2528 4.27741C47.1349 4.52318 46.9648 4.71488 46.7426 4.85251C46.5224 4.99014 46.2688 5.05896 45.9817 5.05896C45.5492 5.05896 45.1982 4.90854 44.9289 4.60772C44.6615 4.3069 44.5278 3.90876 44.5278 3.41329V3.37495ZM45.0763 3.43983C45.0763 3.79374 45.1579 4.07785 45.3211 4.29216C45.4863 4.50647 45.7065 4.61362 45.9817 4.61362C46.259 4.61362 46.4792 4.50548 46.6423 4.28921C46.8055 4.07097 46.8871 3.76621 46.8871 3.37495C46.8871 3.02498 46.8036 2.74185 46.6364 2.52558C46.4713 2.30733 46.2511 2.19821 45.9758 2.19821C45.7065 2.19821 45.4892 2.30537 45.324 2.51968C45.1589 2.73399 45.0763 3.04071 45.0763 3.43983Z"/>
<path d="M49.2533 4.99997H48.7077V0.469971H49.2533V4.99997Z"/>
<path d="M51.2657 4.99997H50.7201V1.80892H51.2657V4.99997ZM50.6758 0.96249C50.6758 0.874014 50.7024 0.7993 50.7554 0.73835C50.8105 0.677399 50.8911 0.646924 50.9973 0.646924C51.1035 0.646924 51.1841 0.677399 51.2391 0.73835C51.2942 0.7993 51.3217 0.874014 51.3217 0.96249C51.3217 1.05097 51.2942 1.1247 51.2391 1.18368C51.1841 1.24267 51.1035 1.27216 50.9973 1.27216C50.8911 1.27216 50.8105 1.24267 50.7554 1.18368C50.7024 1.1247 50.6758 1.05097 50.6758 0.96249Z"/>
<path d="M53.5758 3.52241L53.2337 3.87927V4.99997H52.6881V0.469971H53.2337V3.20979L53.5257 2.85884L54.5196 1.80892H55.1832L53.9415 3.14196L55.3277 4.99997H54.6877L53.5758 3.52241Z"/>
<path d="M2.54811 10.3985H1.10889V9.95321H2.54811V10.3985Z"/>
<path d="M6.23062 8.80892V12.3686C6.23062 12.9821 5.95241 13.2888 5.39599 13.2888C5.27605 13.2888 5.16497 13.2711 5.06273 13.2357V12.7992C5.12564 12.8149 5.20822 12.8228 5.31046 12.8228C5.43236 12.8228 5.52477 12.7894 5.58769 12.7225C5.65257 12.6576 5.68501 12.5436 5.68501 12.3804V8.80892H6.23062ZM5.62898 7.96249C5.62898 7.87598 5.65552 7.80225 5.70861 7.7413C5.76366 7.67838 5.84329 7.64692 5.94749 7.64692C6.05366 7.64692 6.13428 7.6774 6.18933 7.73835C6.24438 7.7993 6.27191 7.87401 6.27191 7.96249C6.27191 8.05097 6.24438 8.1247 6.18933 8.18368C6.13428 8.24267 6.05366 8.27216 5.94749 8.27216C5.84132 8.27216 5.76169 8.24267 5.70861 8.18368C5.65552 8.1247 5.62898 8.05097 5.62898 7.96249Z"/>
<path d="M9.62611 11.6844C9.41377 11.9341 9.10213 12.059 8.69121 12.059C8.35107 12.059 8.09154 11.9606 7.91262 11.764C7.73566 11.5655 7.6462 11.2725 7.64424 10.8852V8.80892H8.18984V10.8704C8.18984 11.3541 8.38646 11.5959 8.77969 11.5959C9.19651 11.5959 9.47374 11.4406 9.61137 11.13V8.80892H10.157V12H9.63791L9.62611 11.6844Z"/>
<path d="M12.0454 11.5546H13.9123V12H11.3789V11.5989L13.1396 9.26015H11.4054V8.80892H13.8238V9.19526L12.0454 11.5546ZM12.3138 7.96839C12.3138 7.87991 12.3403 7.8052 12.3934 7.74425C12.4485 7.6833 12.5291 7.65282 12.6353 7.65282C12.7414 7.65282 12.822 7.6833 12.8771 7.74425C12.9321 7.8052 12.9597 7.87991 12.9597 7.96839C12.9597 8.05687 12.9321 8.1306 12.8771 8.18958C12.822 8.24856 12.7414 8.27806 12.6353 8.27806C12.5291 8.27806 12.4485 8.24856 12.3934 8.18958C12.3403 8.1306 12.3138 8.05687 12.3138 7.96839Z"/>
<path d="M17.8543 8.03622V8.80892H18.4501V9.23065H17.8543V11.2096C17.8543 11.3374 17.8809 11.4337 17.9339 11.4986C17.987 11.5615 18.0775 11.593 18.2053 11.593C18.2682 11.593 18.3547 11.5812 18.4648 11.5576V12C18.3213 12.0393 18.1817 12.059 18.046 12.059C17.8022 12.059 17.6184 11.9852 17.4945 11.8378C17.3706 11.6903 17.3087 11.4809 17.3087 11.2096V9.23065H16.7277V8.80892H17.3087V8.03622H17.8543Z"/>
<path d="M20.9578 12.059C20.5253 12.059 20.1733 11.9174 19.902 11.6343C19.6307 11.3492 19.495 10.9687 19.495 10.4929V10.3926C19.495 10.0761 19.555 9.79396 19.6749 9.54622C19.7968 9.29652 19.9659 9.10187 20.1822 8.96228C20.4004 8.82071 20.6364 8.74993 20.89 8.74993C21.3049 8.74993 21.6273 8.88658 21.8573 9.15987C22.0874 9.43317 22.2024 9.82443 22.2024 10.3337V10.5608H20.0406C20.0485 10.8753 20.1399 11.13 20.3149 11.3246C20.4919 11.5173 20.716 11.6136 20.9873 11.6136C21.18 11.6136 21.3432 11.5743 21.4769 11.4957C21.6106 11.417 21.7276 11.3128 21.8279 11.183L22.1611 11.4426C21.8937 11.8535 21.4926 12.059 20.9578 12.059ZM20.89 9.19821C20.6698 9.19821 20.485 9.27883 20.3356 9.44005C20.1861 9.59931 20.0937 9.82345 20.0583 10.1125H21.6568V10.0712C21.6411 9.79395 21.5664 9.57965 21.4327 9.42825C21.299 9.27489 21.1181 9.19821 20.89 9.19821Z"/>
<path d="M24.9225 9.29849C24.84 9.28472 24.7505 9.27784 24.6542 9.27784C24.2963 9.27784 24.0535 9.43022 23.9257 9.73497V12H23.3801V8.80892H23.9109L23.9198 9.17757C24.0987 8.89248 24.3524 8.74993 24.6807 8.74993C24.7869 8.74993 24.8675 8.76369 24.9225 8.79122V9.29849Z"/>
<path d="M27.8226 12C27.7911 11.9371 27.7655 11.825 27.7459 11.6638C27.4922 11.9272 27.1895 12.059 26.8375 12.059C26.5229 12.059 26.2644 11.9705 26.0619 11.7935C25.8613 11.6146 25.7611 11.3885 25.7611 11.1152C25.7611 10.7829 25.8869 10.5254 26.1386 10.3425C26.3922 10.1577 26.7481 10.0653 27.2062 10.0653H27.737V9.8146C27.737 9.62388 27.68 9.47249 27.566 9.36042C27.4519 9.24638 27.2838 9.18937 27.0617 9.18937C26.867 9.18937 26.7038 9.23852 26.5721 9.33683C26.4404 9.43513 26.3745 9.55409 26.3745 9.69368H25.8259C25.8259 9.53442 25.882 9.38106 25.994 9.2336C26.1081 9.08418 26.2614 8.96621 26.4541 8.8797C26.6488 8.79319 26.8621 8.74993 27.0941 8.74993C27.4618 8.74993 27.7498 8.84234 27.9582 9.02716C28.1666 9.21001 28.2748 9.46266 28.2826 9.78511V11.2538C28.2826 11.5468 28.32 11.7798 28.3947 11.9528V12H27.8226ZM26.9171 11.5841C27.0882 11.5841 27.2504 11.5399 27.4038 11.4514C27.5571 11.3629 27.6682 11.2479 27.737 11.1064V10.4516H27.3094C26.6409 10.4516 26.3067 10.6473 26.3067 11.0385C26.3067 11.2096 26.3637 11.3433 26.4777 11.4396C26.5918 11.536 26.7382 11.5841 26.9171 11.5841Z"/>
<path d="M30.1947 11.5546H32.0615V12H29.5281V11.5989L31.2888 9.26015H29.5547V8.80892H31.9731V9.19526L30.1947 11.5546Z"/>
<path d="M33.832 10.7878H33.3395L33.3011 7.70591H33.8733L33.832 10.7878ZM33.2805 11.7257C33.2805 11.6372 33.307 11.5635 33.3601 11.5045C33.4152 11.4436 33.4958 11.4131 33.602 11.4131C33.7081 11.4131 33.7887 11.4436 33.8438 11.5045C33.8989 11.5635 33.9264 11.6372 33.9264 11.7257C33.9264 11.8142 33.8989 11.8879 33.8438 11.9469C33.7887 12.0039 33.7081 12.0324 33.602 12.0324C33.4958 12.0324 33.4152 12.0039 33.3601 11.9469C33.307 11.8879 33.2805 11.8142 33.2805 11.7257Z"/>
</mask>
<path d="M1.92287 4.53694H4.37957V4.99997H1.2534V4.57528L3.60687 1.17188H1.29174V0.705908H4.2852V1.12175L1.92287 4.53694Z" fill="black"/>
<path d="M7.54208 4.99997C7.51062 4.93705 7.48506 4.82498 7.4654 4.66376C7.21176 4.92722 6.90898 5.05896 6.55704 5.05896C6.24245 5.05896 5.98391 4.97048 5.78139 4.79353C5.58085 4.61461 5.48057 4.3885 5.48057 4.11521C5.48057 3.78293 5.60641 3.52536 5.85807 3.34251C6.11171 3.15769 6.46758 3.06528 6.92569 3.06528H7.45655V2.8146C7.45655 2.62388 7.39953 2.47249 7.28549 2.36042C7.17146 2.24638 7.00335 2.18937 6.78118 2.18937C6.58653 2.18937 6.42334 2.23852 6.29161 2.33683C6.15988 2.43513 6.09401 2.55409 6.09401 2.69368H5.54546C5.54546 2.53442 5.60149 2.38106 5.71356 2.2336C5.8276 2.08418 5.98096 1.96621 6.17364 1.8797C6.36829 1.79319 6.58161 1.74993 6.81362 1.74993C7.18129 1.74993 7.46933 1.84234 7.67774 2.02716C7.88615 2.21001 7.99429 2.46266 8.00215 2.78511V4.25382C8.00215 4.54677 8.03951 4.77976 8.11422 4.95278V4.99997H7.54208ZM6.63667 4.58413C6.80772 4.58413 6.96993 4.53989 7.12329 4.45142C7.27665 4.36294 7.38773 4.24792 7.45655 4.10636V3.45163H7.02891C6.36042 3.45163 6.02618 3.64726 6.02618 4.03853C6.02618 4.20958 6.0832 4.34328 6.19723 4.43962C6.31127 4.53596 6.45775 4.58413 6.63667 4.58413Z" fill="black"/>
<path d="M10.9435 2.29849C10.8609 2.28472 10.7714 2.27784 10.6751 2.27784C10.3173 2.27784 10.0744 2.43022 9.94663 2.73497V4.99997H9.40103V1.80892H9.93189L9.94073 2.17757C10.1197 1.89248 10.3733 1.74993 10.7016 1.74993C10.8078 1.74993 10.8884 1.76369 10.9435 1.79122V2.29849Z" fill="black"/>
<path d="M13.2566 5.05896C12.824 5.05896 12.4721 4.91739 12.2008 4.63427C11.9295 4.34918 11.7938 3.96873 11.7938 3.49292V3.39265C11.7938 3.0761 11.8538 2.79396 11.9737 2.54622C12.0956 2.29652 12.2647 2.10187 12.481 1.96228C12.6992 1.82071 12.9351 1.74993 13.1888 1.74993C13.6036 1.74993 13.9261 1.88658 14.1561 2.15987C14.3862 2.43317 14.5012 2.82443 14.5012 3.33366V3.56075H12.3394C12.3473 3.87534 12.4387 4.12995 12.6137 4.3246C12.7906 4.51728 13.0148 4.61362 13.2861 4.61362C13.4788 4.61362 13.642 4.5743 13.7757 4.49565C13.9094 4.41701 14.0263 4.3128 14.1266 4.18304L14.4599 4.44257C14.1925 4.85349 13.7914 5.05896 13.2566 5.05896ZM13.1888 2.19821C12.9686 2.19821 12.7837 2.27882 12.6343 2.44005C12.4849 2.59931 12.3925 2.82345 12.3571 3.11247H13.9556V3.07118C13.9398 2.79395 13.8651 2.57965 13.7314 2.42825C13.5977 2.27489 13.4168 2.19821 13.1888 2.19821Z" fill="black"/>
<path d="M16.192 4.55464H18.0589V4.99997H15.5255V4.59888L17.2862 2.26015H15.552V1.80892H17.9704V2.19526L16.192 4.55464Z" fill="black"/>
<path d="M20.4959 5.05896C20.0633 5.05896 19.7114 4.91739 19.4401 4.63427C19.1687 4.34918 19.0331 3.96873 19.0331 3.49292V3.39265C19.0331 3.0761 19.093 2.79396 19.213 2.54622C19.3349 2.29652 19.504 2.10187 19.7202 1.96228C19.9385 1.82071 20.1744 1.74993 20.428 1.74993C20.8429 1.74993 21.1653 1.88658 21.3954 2.15987C21.6254 2.43317 21.7404 2.82443 21.7404 3.33366V3.56075H19.5787C19.5865 3.87534 19.678 4.12995 19.8529 4.3246C20.0299 4.51728 20.254 4.61362 20.5254 4.61362C20.718 4.61362 20.8812 4.5743 21.0149 4.49565C21.1486 4.41701 21.2656 4.3128 21.3659 4.18304L21.6992 4.44257C21.4318 4.85349 21.0307 5.05896 20.4959 5.05896ZM20.428 2.19821C20.2078 2.19821 20.023 2.27882 19.8736 2.44005C19.7242 2.59931 19.6317 2.82345 19.5964 3.11247H21.1948V3.07118C21.1791 2.79395 21.1044 2.57965 20.9707 2.42825C20.837 2.27489 20.6561 2.19821 20.428 2.19821Z" fill="black"/>
<path d="M24.4606 2.29849C24.378 2.28472 24.2885 2.27784 24.1922 2.27784C23.8343 2.27784 23.5915 2.43022 23.4637 2.73497V4.99997H22.9181V1.80892H23.449L23.4578 2.17757C23.6367 1.89248 23.8904 1.74993 24.2187 1.74993C24.3249 1.74993 24.4055 1.76369 24.4606 1.79122V2.29849Z" fill="black"/>
<path d="M28.3869 4.24792L29.0004 1.80892H29.546L28.617 4.99997H28.1746L27.3989 2.58161L26.6439 4.99997H26.2015L25.2755 1.80892H25.8181L26.4463 4.19778L27.1895 1.80892H27.629L28.3869 4.24792Z" fill="black"/>
<path d="M32.617 4.6844C32.4047 4.9341 32.0931 5.05896 31.6821 5.05896C31.342 5.05896 31.0825 4.96065 30.9035 4.76403C30.7266 4.56545 30.6371 4.2725 30.6352 3.88517V1.80892H31.1808V3.87042C31.1808 4.35409 31.3774 4.59593 31.7706 4.59593C32.1874 4.59593 32.4647 4.4406 32.6023 4.12995V1.80892H33.1479V4.99997H32.6288L32.617 4.6844Z" fill="black"/>
<path d="M35.0865 1.80892V5.36862C35.0865 5.98206 34.8083 6.28878 34.2519 6.28878C34.1319 6.28878 34.0208 6.27108 33.9186 6.23569V5.79921C33.9815 5.81494 34.0641 5.8228 34.1663 5.8228C34.2882 5.8228 34.3806 5.78938 34.4436 5.72253C34.5084 5.65765 34.5409 5.54361 34.5409 5.38042V1.80892H35.0865ZM34.4848 0.96249C34.4848 0.87598 34.5114 0.802249 34.5645 0.741299C34.6195 0.678382 34.6992 0.646924 34.8034 0.646924C34.9095 0.646924 34.9901 0.677399 35.0452 0.73835C35.1002 0.7993 35.1278 0.874014 35.1278 0.96249C35.1278 1.05097 35.1002 1.1247 35.0452 1.18368C34.9901 1.24267 34.9095 1.27216 34.8034 1.27216C34.6972 1.27216 34.6176 1.24267 34.5645 1.18368C34.5114 1.1247 34.4848 1.05097 34.4848 0.96249Z" fill="black"/>
<path d="M40.4117 4.15354C40.4117 4.00608 40.3557 3.89205 40.2436 3.81144C40.1335 3.72886 39.9398 3.65808 39.6626 3.59909C39.3873 3.54011 39.1681 3.46933 39.0049 3.38675C38.8437 3.30417 38.7238 3.20586 38.6451 3.09183C38.5684 2.97779 38.5301 2.84213 38.5301 2.68483C38.5301 2.42334 38.6402 2.20215 38.8604 2.02126C39.0826 1.84037 39.3657 1.74993 39.7098 1.74993C40.0716 1.74993 40.3645 1.84332 40.5887 2.03011C40.8148 2.21689 40.9278 2.45578 40.9278 2.74677H40.3793C40.3793 2.59734 40.3154 2.46856 40.1876 2.36042C40.0617 2.25228 39.9025 2.19821 39.7098 2.19821C39.5112 2.19821 39.3559 2.24147 39.2438 2.32798C39.1317 2.41449 39.0757 2.52754 39.0757 2.66714C39.0757 2.79887 39.1278 2.89816 39.232 2.96501C39.3362 3.03186 39.524 3.09576 39.7953 3.15671C40.0686 3.21766 40.2898 3.29041 40.4589 3.37495C40.628 3.4595 40.7528 3.56174 40.8334 3.68167C40.916 3.79964 40.9573 3.94415 40.9573 4.11521C40.9573 4.4003 40.8433 4.62935 40.6152 4.80237C40.3871 4.97343 40.0912 5.05896 39.7275 5.05896C39.4719 5.05896 39.2458 5.01373 39.0492 4.92329C38.8526 4.83285 38.6982 4.70702 38.5861 4.54579C38.476 4.3826 38.421 4.20663 38.421 4.01788H38.9666C38.9764 4.20073 39.0492 4.34623 39.1848 4.45437C39.3225 4.56054 39.5033 4.61362 39.7275 4.61362C39.9339 4.61362 40.0991 4.57233 40.223 4.48976C40.3488 4.40521 40.4117 4.29314 40.4117 4.15354Z" fill="black"/>
<path d="M42.9519 1.03622V1.80892H43.5477V2.23065H42.9519V4.20958C42.9519 4.33738 42.9785 4.43372 43.0316 4.4986C43.0846 4.56152 43.1751 4.59298 43.3029 4.59298C43.3658 4.59298 43.4523 4.58118 43.5624 4.55759V4.99997C43.4189 5.03929 43.2793 5.05896 43.1436 5.05896C42.8998 5.05896 42.716 4.98522 42.5921 4.83776C42.4683 4.6903 42.4063 4.48091 42.4063 4.20958V2.23065H41.8253V1.80892H42.4063V1.03622H42.9519Z" fill="black"/>
<path d="M44.5278 3.37495C44.5278 3.06233 44.5887 2.78118 44.7106 2.53147C44.8345 2.28177 45.0055 2.08909 45.2238 1.95343C45.444 1.81776 45.6947 1.74993 45.9758 1.74993C46.4103 1.74993 46.7613 1.90034 47.0287 2.20116C47.2981 2.50198 47.4327 2.90209 47.4327 3.40149V3.43983C47.4327 3.75048 47.3728 4.02968 47.2528 4.27741C47.1349 4.52318 46.9648 4.71488 46.7426 4.85251C46.5224 4.99014 46.2688 5.05896 45.9817 5.05896C45.5492 5.05896 45.1982 4.90854 44.9289 4.60772C44.6615 4.3069 44.5278 3.90876 44.5278 3.41329V3.37495ZM45.0763 3.43983C45.0763 3.79374 45.1579 4.07785 45.3211 4.29216C45.4863 4.50647 45.7065 4.61362 45.9817 4.61362C46.259 4.61362 46.4792 4.50548 46.6423 4.28921C46.8055 4.07097 46.8871 3.76621 46.8871 3.37495C46.8871 3.02498 46.8036 2.74185 46.6364 2.52558C46.4713 2.30733 46.2511 2.19821 45.9758 2.19821C45.7065 2.19821 45.4892 2.30537 45.324 2.51968C45.1589 2.73399 45.0763 3.04071 45.0763 3.43983Z" fill="black"/>
<path d="M49.2533 4.99997H48.7077V0.469971H49.2533V4.99997Z" fill="black"/>
<path d="M51.2657 4.99997H50.7201V1.80892H51.2657V4.99997ZM50.6758 0.96249C50.6758 0.874014 50.7024 0.7993 50.7554 0.73835C50.8105 0.677399 50.8911 0.646924 50.9973 0.646924C51.1035 0.646924 51.1841 0.677399 51.2391 0.73835C51.2942 0.7993 51.3217 0.874014 51.3217 0.96249C51.3217 1.05097 51.2942 1.1247 51.2391 1.18368C51.1841 1.24267 51.1035 1.27216 50.9973 1.27216C50.8911 1.27216 50.8105 1.24267 50.7554 1.18368C50.7024 1.1247 50.6758 1.05097 50.6758 0.96249Z" fill="black"/>
<path d="M53.5758 3.52241L53.2337 3.87927V4.99997H52.6881V0.469971H53.2337V3.20979L53.5257 2.85884L54.5196 1.80892H55.1832L53.9415 3.14196L55.3277 4.99997H54.6877L53.5758 3.52241Z" fill="black"/>
<path d="M2.54811 10.3985H1.10889V9.95321H2.54811V10.3985Z" fill="black"/>
<path d="M6.23062 8.80892V12.3686C6.23062 12.9821 5.95241 13.2888 5.39599 13.2888C5.27605 13.2888 5.16497 13.2711 5.06273 13.2357V12.7992C5.12564 12.8149 5.20822 12.8228 5.31046 12.8228C5.43236 12.8228 5.52477 12.7894 5.58769 12.7225C5.65257 12.6576 5.68501 12.5436 5.68501 12.3804V8.80892H6.23062ZM5.62898 7.96249C5.62898 7.87598 5.65552 7.80225 5.70861 7.7413C5.76366 7.67838 5.84329 7.64692 5.94749 7.64692C6.05366 7.64692 6.13428 7.6774 6.18933 7.73835C6.24438 7.7993 6.27191 7.87401 6.27191 7.96249C6.27191 8.05097 6.24438 8.1247 6.18933 8.18368C6.13428 8.24267 6.05366 8.27216 5.94749 8.27216C5.84132 8.27216 5.76169 8.24267 5.70861 8.18368C5.65552 8.1247 5.62898 8.05097 5.62898 7.96249Z" fill="black"/>
<path d="M9.62611 11.6844C9.41377 11.9341 9.10213 12.059 8.69121 12.059C8.35107 12.059 8.09154 11.9606 7.91262 11.764C7.73566 11.5655 7.6462 11.2725 7.64424 10.8852V8.80892H8.18984V10.8704C8.18984 11.3541 8.38646 11.5959 8.77969 11.5959C9.19651 11.5959 9.47374 11.4406 9.61137 11.13V8.80892H10.157V12H9.63791L9.62611 11.6844Z" fill="black"/>
<path d="M12.0454 11.5546H13.9123V12H11.3789V11.5989L13.1396 9.26015H11.4054V8.80892H13.8238V9.19526L12.0454 11.5546ZM12.3138 7.96839C12.3138 7.87991 12.3403 7.8052 12.3934 7.74425C12.4485 7.6833 12.5291 7.65282 12.6353 7.65282C12.7414 7.65282 12.822 7.6833 12.8771 7.74425C12.9321 7.8052 12.9597 7.87991 12.9597 7.96839C12.9597 8.05687 12.9321 8.1306 12.8771 8.18958C12.822 8.24856 12.7414 8.27806 12.6353 8.27806C12.5291 8.27806 12.4485 8.24856 12.3934 8.18958C12.3403 8.1306 12.3138 8.05687 12.3138 7.96839Z" fill="black"/>
<path d="M17.8543 8.03622V8.80892H18.4501V9.23065H17.8543V11.2096C17.8543 11.3374 17.8809 11.4337 17.9339 11.4986C17.987 11.5615 18.0775 11.593 18.2053 11.593C18.2682 11.593 18.3547 11.5812 18.4648 11.5576V12C18.3213 12.0393 18.1817 12.059 18.046 12.059C17.8022 12.059 17.6184 11.9852 17.4945 11.8378C17.3706 11.6903 17.3087 11.4809 17.3087 11.2096V9.23065H16.7277V8.80892H17.3087V8.03622H17.8543Z" fill="black"/>
<path d="M20.9578 12.059C20.5253 12.059 20.1733 11.9174 19.902 11.6343C19.6307 11.3492 19.495 10.9687 19.495 10.4929V10.3926C19.495 10.0761 19.555 9.79396 19.6749 9.54622C19.7968 9.29652 19.9659 9.10187 20.1822 8.96228C20.4004 8.82071 20.6364 8.74993 20.89 8.74993C21.3049 8.74993 21.6273 8.88658 21.8573 9.15987C22.0874 9.43317 22.2024 9.82443 22.2024 10.3337V10.5608H20.0406C20.0485 10.8753 20.1399 11.13 20.3149 11.3246C20.4919 11.5173 20.716 11.6136 20.9873 11.6136C21.18 11.6136 21.3432 11.5743 21.4769 11.4957C21.6106 11.417 21.7276 11.3128 21.8279 11.183L22.1611 11.4426C21.8937 11.8535 21.4926 12.059 20.9578 12.059ZM20.89 9.19821C20.6698 9.19821 20.485 9.27883 20.3356 9.44005C20.1861 9.59931 20.0937 9.82345 20.0583 10.1125H21.6568V10.0712C21.6411 9.79395 21.5664 9.57965 21.4327 9.42825C21.299 9.27489 21.1181 9.19821 20.89 9.19821Z" fill="black"/>
<path d="M24.9225 9.29849C24.84 9.28472 24.7505 9.27784 24.6542 9.27784C24.2963 9.27784 24.0535 9.43022 23.9257 9.73497V12H23.3801V8.80892H23.9109L23.9198 9.17757C24.0987 8.89248 24.3524 8.74993 24.6807 8.74993C24.7869 8.74993 24.8675 8.76369 24.9225 8.79122V9.29849Z" fill="black"/>
<path d="M27.8226 12C27.7911 11.9371 27.7655 11.825 27.7459 11.6638C27.4922 11.9272 27.1895 12.059 26.8375 12.059C26.5229 12.059 26.2644 11.9705 26.0619 11.7935C25.8613 11.6146 25.7611 11.3885 25.7611 11.1152C25.7611 10.7829 25.8869 10.5254 26.1386 10.3425C26.3922 10.1577 26.7481 10.0653 27.2062 10.0653H27.737V9.8146C27.737 9.62388 27.68 9.47249 27.566 9.36042C27.4519 9.24638 27.2838 9.18937 27.0617 9.18937C26.867 9.18937 26.7038 9.23852 26.5721 9.33683C26.4404 9.43513 26.3745 9.55409 26.3745 9.69368H25.8259C25.8259 9.53442 25.882 9.38106 25.994 9.2336C26.1081 9.08418 26.2614 8.96621 26.4541 8.8797C26.6488 8.79319 26.8621 8.74993 27.0941 8.74993C27.4618 8.74993 27.7498 8.84234 27.9582 9.02716C28.1666 9.21001 28.2748 9.46266 28.2826 9.78511V11.2538C28.2826 11.5468 28.32 11.7798 28.3947 11.9528V12H27.8226ZM26.9171 11.5841C27.0882 11.5841 27.2504 11.5399 27.4038 11.4514C27.5571 11.3629 27.6682 11.2479 27.737 11.1064V10.4516H27.3094C26.6409 10.4516 26.3067 10.6473 26.3067 11.0385C26.3067 11.2096 26.3637 11.3433 26.4777 11.4396C26.5918 11.536 26.7382 11.5841 26.9171 11.5841Z" fill="black"/>
<path d="M30.1947 11.5546H32.0615V12H29.5281V11.5989L31.2888 9.26015H29.5547V8.80892H31.9731V9.19526L30.1947 11.5546Z" fill="black"/>
<path d="M33.832 10.7878H33.3395L33.3011 7.70591H33.8733L33.832 10.7878ZM33.2805 11.7257C33.2805 11.6372 33.307 11.5635 33.3601 11.5045C33.4152 11.4436 33.4958 11.4131 33.602 11.4131C33.7081 11.4131 33.7887 11.4436 33.8438 11.5045C33.8989 11.5635 33.9264 11.6372 33.9264 11.7257C33.9264 11.8142 33.8989 11.8879 33.8438 11.9469C33.7887 12.0039 33.7081 12.0324 33.602 12.0324C33.4958 12.0324 33.4152 12.0039 33.3601 11.9469C33.307 11.8879 33.2805 11.8142 33.2805 11.7257Z" fill="black"/>
<path d="M1.92287 4.53694H4.37957V4.99997H1.2534V4.57528L3.60687 1.17188H1.29174V0.705908H4.2852V1.12175L1.92287 4.53694Z" stroke="white" stroke-width="0.8" mask="url(#path-1-outside-1)"/>
<path d="M7.54208 4.99997C7.51062 4.93705 7.48506 4.82498 7.4654 4.66376C7.21176 4.92722 6.90898 5.05896 6.55704 5.05896C6.24245 5.05896 5.98391 4.97048 5.78139 4.79353C5.58085 4.61461 5.48057 4.3885 5.48057 4.11521C5.48057 3.78293 5.60641 3.52536 5.85807 3.34251C6.11171 3.15769 6.46758 3.06528 6.92569 3.06528H7.45655V2.8146C7.45655 2.62388 7.39953 2.47249 7.28549 2.36042C7.17146 2.24638 7.00335 2.18937 6.78118 2.18937C6.58653 2.18937 6.42334 2.23852 6.29161 2.33683C6.15988 2.43513 6.09401 2.55409 6.09401 2.69368H5.54546C5.54546 2.53442 5.60149 2.38106 5.71356 2.2336C5.8276 2.08418 5.98096 1.96621 6.17364 1.8797C6.36829 1.79319 6.58161 1.74993 6.81362 1.74993C7.18129 1.74993 7.46933 1.84234 7.67774 2.02716C7.88615 2.21001 7.99429 2.46266 8.00215 2.78511V4.25382C8.00215 4.54677 8.03951 4.77976 8.11422 4.95278V4.99997H7.54208ZM6.63667 4.58413C6.80772 4.58413 6.96993 4.53989 7.12329 4.45142C7.27665 4.36294 7.38773 4.24792 7.45655 4.10636V3.45163H7.02891C6.36042 3.45163 6.02618 3.64726 6.02618 4.03853C6.02618 4.20958 6.0832 4.34328 6.19723 4.43962C6.31127 4.53596 6.45775 4.58413 6.63667 4.58413Z" stroke="white" stroke-width="0.8" mask="url(#path-1-outside-1)"/>
<path d="M10.9435 2.29849C10.8609 2.28472 10.7714 2.27784 10.6751 2.27784C10.3173 2.27784 10.0744 2.43022 9.94663 2.73497V4.99997H9.40103V1.80892H9.93189L9.94073 2.17757C10.1197 1.89248 10.3733 1.74993 10.7016 1.74993C10.8078 1.74993 10.8884 1.76369 10.9435 1.79122V2.29849Z" stroke="white" stroke-width="0.8" mask="url(#path-1-outside-1)"/>
<path d="M13.2566 5.05896C12.824 5.05896 12.4721 4.91739 12.2008 4.63427C11.9295 4.34918 11.7938 3.96873 11.7938 3.49292V3.39265C11.7938 3.0761 11.8538 2.79396 11.9737 2.54622C12.0956 2.29652 12.2647 2.10187 12.481 1.96228C12.6992 1.82071 12.9351 1.74993 13.1888 1.74993C13.6036 1.74993 13.9261 1.88658 14.1561 2.15987C14.3862 2.43317 14.5012 2.82443 14.5012 3.33366V3.56075H12.3394C12.3473 3.87534 12.4387 4.12995 12.6137 4.3246C12.7906 4.51728 13.0148 4.61362 13.2861 4.61362C13.4788 4.61362 13.642 4.5743 13.7757 4.49565C13.9094 4.41701 14.0263 4.3128 14.1266 4.18304L14.4599 4.44257C14.1925 4.85349 13.7914 5.05896 13.2566 5.05896ZM13.1888 2.19821C12.9686 2.19821 12.7837 2.27882 12.6343 2.44005C12.4849 2.59931 12.3925 2.82345 12.3571 3.11247H13.9556V3.07118C13.9398 2.79395 13.8651 2.57965 13.7314 2.42825C13.5977 2.27489 13.4168 2.19821 13.1888 2.19821Z" stroke="white" stroke-width="0.8" mask="url(#path-1-outside-1)"/>
<path d="M16.192 4.55464H18.0589V4.99997H15.5255V4.59888L17.2862 2.26015H15.552V1.80892H17.9704V2.19526L16.192 4.55464Z" stroke="white" stroke-width="0.8" mask="url(#path-1-outside-1)"/>
<path d="M20.4959 5.05896C20.0633 5.05896 19.7114 4.91739 19.4401 4.63427C19.1687 4.34918 19.0331 3.96873 19.0331 3.49292V3.39265C19.0331 3.0761 19.093 2.79396 19.213 2.54622C19.3349 2.29652 19.504 2.10187 19.7202 1.96228C19.9385 1.82071 20.1744 1.74993 20.428 1.74993C20.8429 1.74993 21.1653 1.88658 21.3954 2.15987C21.6254 2.43317 21.7404 2.82443 21.7404 3.33366V3.56075H19.5787C19.5865 3.87534 19.678 4.12995 19.8529 4.3246C20.0299 4.51728 20.254 4.61362 20.5254 4.61362C20.718 4.61362 20.8812 4.5743 21.0149 4.49565C21.1486 4.41701 21.2656 4.3128 21.3659 4.18304L21.6992 4.44257C21.4318 4.85349 21.0307 5.05896 20.4959 5.05896ZM20.428 2.19821C20.2078 2.19821 20.023 2.27882 19.8736 2.44005C19.7242 2.59931 19.6317 2.82345 19.5964 3.11247H21.1948V3.07118C21.1791 2.79395 21.1044 2.57965 20.9707 2.42825C20.837 2.27489 20.6561 2.19821 20.428 2.19821Z" stroke="white" stroke-width="0.8" mask="url(#path-1-outside-1)"/>
<path d="M24.4606 2.29849C24.378 2.28472 24.2885 2.27784 24.1922 2.27784C23.8343 2.27784 23.5915 2.43022 23.4637 2.73497V4.99997H22.9181V1.80892H23.449L23.4578 2.17757C23.6367 1.89248 23.8904 1.74993 24.2187 1.74993C24.3249 1.74993 24.4055 1.76369 24.4606 1.79122V2.29849Z" stroke="white" stroke-width="0.8" mask="url(#path-1-outside-1)"/>
<path d="M28.3869 4.24792L29.0004 1.80892H29.546L28.617 4.99997H28.1746L27.3989 2.58161L26.6439 4.99997H26.2015L25.2755 1.80892H25.8181L26.4463 4.19778L27.1895 1.80892H27.629L28.3869 4.24792Z" stroke="white" stroke-width="0.8" mask="url(#path-1-outside-1)"/>
<path d="M32.617 4.6844C32.4047 4.9341 32.0931 5.05896 31.6821 5.05896C31.342 5.05896 31.0825 4.96065 30.9035 4.76403C30.7266 4.56545 30.6371 4.2725 30.6352 3.88517V1.80892H31.1808V3.87042C31.1808 4.35409 31.3774 4.59593 31.7706 4.59593C32.1874 4.59593 32.4647 4.4406 32.6023 4.12995V1.80892H33.1479V4.99997H32.6288L32.617 4.6844Z" stroke="white" stroke-width="0.8" mask="url(#path-1-outside-1)"/>
<path d="M35.0865 1.80892V5.36862C35.0865 5.98206 34.8083 6.28878 34.2519 6.28878C34.1319 6.28878 34.0208 6.27108 33.9186 6.23569V5.79921C33.9815 5.81494 34.0641 5.8228 34.1663 5.8228C34.2882 5.8228 34.3806 5.78938 34.4436 5.72253C34.5084 5.65765 34.5409 5.54361 34.5409 5.38042V1.80892H35.0865ZM34.4848 0.96249C34.4848 0.87598 34.5114 0.802249 34.5645 0.741299C34.6195 0.678382 34.6992 0.646924 34.8034 0.646924C34.9095 0.646924 34.9901 0.677399 35.0452 0.73835C35.1002 0.7993 35.1278 0.874014 35.1278 0.96249C35.1278 1.05097 35.1002 1.1247 35.0452 1.18368C34.9901 1.24267 34.9095 1.27216 34.8034 1.27216C34.6972 1.27216 34.6176 1.24267 34.5645 1.18368C34.5114 1.1247 34.4848 1.05097 34.4848 0.96249Z" stroke="white" stroke-width="0.8" mask="url(#path-1-outside-1)"/>
<path d="M40.4117 4.15354C40.4117 4.00608 40.3557 3.89205 40.2436 3.81144C40.1335 3.72886 39.9398 3.65808 39.6626 3.59909C39.3873 3.54011 39.1681 3.46933 39.0049 3.38675C38.8437 3.30417 38.7238 3.20586 38.6451 3.09183C38.5684 2.97779 38.5301 2.84213 38.5301 2.68483C38.5301 2.42334 38.6402 2.20215 38.8604 2.02126C39.0826 1.84037 39.3657 1.74993 39.7098 1.74993C40.0716 1.74993 40.3645 1.84332 40.5887 2.03011C40.8148 2.21689 40.9278 2.45578 40.9278 2.74677H40.3793C40.3793 2.59734 40.3154 2.46856 40.1876 2.36042C40.0617 2.25228 39.9025 2.19821 39.7098 2.19821C39.5112 2.19821 39.3559 2.24147 39.2438 2.32798C39.1317 2.41449 39.0757 2.52754 39.0757 2.66714C39.0757 2.79887 39.1278 2.89816 39.232 2.96501C39.3362 3.03186 39.524 3.09576 39.7953 3.15671C40.0686 3.21766 40.2898 3.29041 40.4589 3.37495C40.628 3.4595 40.7528 3.56174 40.8334 3.68167C40.916 3.79964 40.9573 3.94415 40.9573 4.11521C40.9573 4.4003 40.8433 4.62935 40.6152 4.80237C40.3871 4.97343 40.0912 5.05896 39.7275 5.05896C39.4719 5.05896 39.2458 5.01373 39.0492 4.92329C38.8526 4.83285 38.6982 4.70702 38.5861 4.54579C38.476 4.3826 38.421 4.20663 38.421 4.01788H38.9666C38.9764 4.20073 39.0492 4.34623 39.1848 4.45437C39.3225 4.56054 39.5033 4.61362 39.7275 4.61362C39.9339 4.61362 40.0991 4.57233 40.223 4.48976C40.3488 4.40521 40.4117 4.29314 40.4117 4.15354Z" stroke="white" stroke-width="0.8" mask="url(#path-1-outside-1)"/>
<path d="M42.9519 1.03622V1.80892H43.5477V2.23065H42.9519V4.20958C42.9519 4.33738 42.9785 4.43372 43.0316 4.4986C43.0846 4.56152 43.1751 4.59298 43.3029 4.59298C43.3658 4.59298 43.4523 4.58118 43.5624 4.55759V4.99997C43.4189 5.03929 43.2793 5.05896 43.1436 5.05896C42.8998 5.05896 42.716 4.98522 42.5921 4.83776C42.4683 4.6903 42.4063 4.48091 42.4063 4.20958V2.23065H41.8253V1.80892H42.4063V1.03622H42.9519Z" stroke="white" stroke-width="0.8" mask="url(#path-1-outside-1)"/>
<path d="M44.5278 3.37495C44.5278 3.06233 44.5887 2.78118 44.7106 2.53147C44.8345 2.28177 45.0055 2.08909 45.2238 1.95343C45.444 1.81776 45.6947 1.74993 45.9758 1.74993C46.4103 1.74993 46.7613 1.90034 47.0287 2.20116C47.2981 2.50198 47.4327 2.90209 47.4327 3.40149V3.43983C47.4327 3.75048 47.3728 4.02968 47.2528 4.27741C47.1349 4.52318 46.9648 4.71488 46.7426 4.85251C46.5224 4.99014 46.2688 5.05896 45.9817 5.05896C45.5492 5.05896 45.1982 4.90854 44.9289 4.60772C44.6615 4.3069 44.5278 3.90876 44.5278 3.41329V3.37495ZM45.0763 3.43983C45.0763 3.79374 45.1579 4.07785 45.3211 4.29216C45.4863 4.50647 45.7065 4.61362 45.9817 4.61362C46.259 4.61362 46.4792 4.50548 46.6423 4.28921C46.8055 4.07097 46.8871 3.76621 46.8871 3.37495C46.8871 3.02498 46.8036 2.74185 46.6364 2.52558C46.4713 2.30733 46.2511 2.19821 45.9758 2.19821C45.7065 2.19821 45.4892 2.30537 45.324 2.51968C45.1589 2.73399 45.0763 3.04071 45.0763 3.43983Z" stroke="white" stroke-width="0.8" mask="url(#path-1-outside-1)"/>
<path d="M49.2533 4.99997H48.7077V0.469971H49.2533V4.99997Z" stroke="white" stroke-width="0.8" mask="url(#path-1-outside-1)"/>
<path d="M51.2657 4.99997H50.7201V1.80892H51.2657V4.99997ZM50.6758 0.96249C50.6758 0.874014 50.7024 0.7993 50.7554 0.73835C50.8105 0.677399 50.8911 0.646924 50.9973 0.646924C51.1035 0.646924 51.1841 0.677399 51.2391 0.73835C51.2942 0.7993 51.3217 0.874014 51.3217 0.96249C51.3217 1.05097 51.2942 1.1247 51.2391 1.18368C51.1841 1.24267 51.1035 1.27216 50.9973 1.27216C50.8911 1.27216 50.8105 1.24267 50.7554 1.18368C50.7024 1.1247 50.6758 1.05097 50.6758 0.96249Z" stroke="white" stroke-width="0.8" mask="url(#path-1-outside-1)"/>
<path d="M53.5758 3.52241L53.2337 3.87927V4.99997H52.6881V0.469971H53.2337V3.20979L53.5257 2.85884L54.5196 1.80892H55.1832L53.9415 3.14196L55.3277 4.99997H54.6877L53.5758 3.52241Z" stroke="white" stroke-width="0.8" mask="url(#path-1-outside-1)"/>
<path d="M2.54811 10.3985H1.10889V9.95321H2.54811V10.3985Z" stroke="white" stroke-width="0.8" mask="url(#path-1-outside-1)"/>
<path d="M6.23062 8.80892V12.3686C6.23062 12.9821 5.95241 13.2888 5.39599 13.2888C5.27605 13.2888 5.16497 13.2711 5.06273 13.2357V12.7992C5.12564 12.8149 5.20822 12.8228 5.31046 12.8228C5.43236 12.8228 5.52477 12.7894 5.58769 12.7225C5.65257 12.6576 5.68501 12.5436 5.68501 12.3804V8.80892H6.23062ZM5.62898 7.96249C5.62898 7.87598 5.65552 7.80225 5.70861 7.7413C5.76366 7.67838 5.84329 7.64692 5.94749 7.64692C6.05366 7.64692 6.13428 7.6774 6.18933 7.73835C6.24438 7.7993 6.27191 7.87401 6.27191 7.96249C6.27191 8.05097 6.24438 8.1247 6.18933 8.18368C6.13428 8.24267 6.05366 8.27216 5.94749 8.27216C5.84132 8.27216 5.76169 8.24267 5.70861 8.18368C5.65552 8.1247 5.62898 8.05097 5.62898 7.96249Z" stroke="white" stroke-width="0.8" mask="url(#path-1-outside-1)"/>
<path d="M9.62611 11.6844C9.41377 11.9341 9.10213 12.059 8.69121 12.059C8.35107 12.059 8.09154 11.9606 7.91262 11.764C7.73566 11.5655 7.6462 11.2725 7.64424 10.8852V8.80892H8.18984V10.8704C8.18984 11.3541 8.38646 11.5959 8.77969 11.5959C9.19651 11.5959 9.47374 11.4406 9.61137 11.13V8.80892H10.157V12H9.63791L9.62611 11.6844Z" stroke="white" stroke-width="0.8" mask="url(#path-1-outside-1)"/>
<path d="M12.0454 11.5546H13.9123V12H11.3789V11.5989L13.1396 9.26015H11.4054V8.80892H13.8238V9.19526L12.0454 11.5546ZM12.3138 7.96839C12.3138 7.87991 12.3403 7.8052 12.3934 7.74425C12.4485 7.6833 12.5291 7.65282 12.6353 7.65282C12.7414 7.65282 12.822 7.6833 12.8771 7.74425C12.9321 7.8052 12.9597 7.87991 12.9597 7.96839C12.9597 8.05687 12.9321 8.1306 12.8771 8.18958C12.822 8.24856 12.7414 8.27806 12.6353 8.27806C12.5291 8.27806 12.4485 8.24856 12.3934 8.18958C12.3403 8.1306 12.3138 8.05687 12.3138 7.96839Z" stroke="white" stroke-width="0.8" mask="url(#path-1-outside-1)"/>
<path d="M17.8543 8.03622V8.80892H18.4501V9.23065H17.8543V11.2096C17.8543 11.3374 17.8809 11.4337 17.9339 11.4986C17.987 11.5615 18.0775 11.593 18.2053 11.593C18.2682 11.593 18.3547 11.5812 18.4648 11.5576V12C18.3213 12.0393 18.1817 12.059 18.046 12.059C17.8022 12.059 17.6184 11.9852 17.4945 11.8378C17.3706 11.6903 17.3087 11.4809 17.3087 11.2096V9.23065H16.7277V8.80892H17.3087V8.03622H17.8543Z" stroke="white" stroke-width="0.8" mask="url(#path-1-outside-1)"/>
<path d="M20.9578 12.059C20.5253 12.059 20.1733 11.9174 19.902 11.6343C19.6307 11.3492 19.495 10.9687 19.495 10.4929V10.3926C19.495 10.0761 19.555 9.79396 19.6749 9.54622C19.7968 9.29652 19.9659 9.10187 20.1822 8.96228C20.4004 8.82071 20.6364 8.74993 20.89 8.74993C21.3049 8.74993 21.6273 8.88658 21.8573 9.15987C22.0874 9.43317 22.2024 9.82443 22.2024 10.3337V10.5608H20.0406C20.0485 10.8753 20.1399 11.13 20.3149 11.3246C20.4919 11.5173 20.716 11.6136 20.9873 11.6136C21.18 11.6136 21.3432 11.5743 21.4769 11.4957C21.6106 11.417 21.7276 11.3128 21.8279 11.183L22.1611 11.4426C21.8937 11.8535 21.4926 12.059 20.9578 12.059ZM20.89 9.19821C20.6698 9.19821 20.485 9.27883 20.3356 9.44005C20.1861 9.59931 20.0937 9.82345 20.0583 10.1125H21.6568V10.0712C21.6411 9.79395 21.5664 9.57965 21.4327 9.42825C21.299 9.27489 21.1181 9.19821 20.89 9.19821Z" stroke="white" stroke-width="0.8" mask="url(#path-1-outside-1)"/>
<path d="M24.9225 9.29849C24.84 9.28472 24.7505 9.27784 24.6542 9.27784C24.2963 9.27784 24.0535 9.43022 23.9257 9.73497V12H23.3801V8.80892H23.9109L23.9198 9.17757C24.0987 8.89248 24.3524 8.74993 24.6807 8.74993C24.7869 8.74993 24.8675 8.76369 24.9225 8.79122V9.29849Z" stroke="white" stroke-width="0.8" mask="url(#path-1-outside-1)"/>
<path d="M27.8226 12C27.7911 11.9371 27.7655 11.825 27.7459 11.6638C27.4922 11.9272 27.1895 12.059 26.8375 12.059C26.5229 12.059 26.2644 11.9705 26.0619 11.7935C25.8613 11.6146 25.7611 11.3885 25.7611 11.1152C25.7611 10.7829 25.8869 10.5254 26.1386 10.3425C26.3922 10.1577 26.7481 10.0653 27.2062 10.0653H27.737V9.8146C27.737 9.62388 27.68 9.47249 27.566 9.36042C27.4519 9.24638 27.2838 9.18937 27.0617 9.18937C26.867 9.18937 26.7038 9.23852 26.5721 9.33683C26.4404 9.43513 26.3745 9.55409 26.3745 9.69368H25.8259C25.8259 9.53442 25.882 9.38106 25.994 9.2336C26.1081 9.08418 26.2614 8.96621 26.4541 8.8797C26.6488 8.79319 26.8621 8.74993 27.0941 8.74993C27.4618 8.74993 27.7498 8.84234 27.9582 9.02716C28.1666 9.21001 28.2748 9.46266 28.2826 9.78511V11.2538C28.2826 11.5468 28.32 11.7798 28.3947 11.9528V12H27.8226ZM26.9171 11.5841C27.0882 11.5841 27.2504 11.5399 27.4038 11.4514C27.5571 11.3629 27.6682 11.2479 27.737 11.1064V10.4516H27.3094C26.6409 10.4516 26.3067 10.6473 26.3067 11.0385C26.3067 11.2096 26.3637 11.3433 26.4777 11.4396C26.5918 11.536 26.7382 11.5841 26.9171 11.5841Z" stroke="white" stroke-width="0.8" mask="url(#path-1-outside-1)"/>
<path d="M30.1947 11.5546H32.0615V12H29.5281V11.5989L31.2888 9.26015H29.5547V8.80892H31.9731V9.19526L30.1947 11.5546Z" stroke="white" stroke-width="0.8" mask="url(#path-1-outside-1)"/>
<path d="M33.832 10.7878H33.3395L33.3011 7.70591H33.8733L33.832 10.7878ZM33.2805 11.7257C33.2805 11.6372 33.307 11.5635 33.3601 11.5045C33.4152 11.4436 33.4958 11.4131 33.602 11.4131C33.7081 11.4131 33.7887 11.4436 33.8438 11.5045C33.8989 11.5635 33.9264 11.6372 33.9264 11.7257C33.9264 11.8142 33.8989 11.8879 33.8438 11.9469C33.7887 12.0039 33.7081 12.0324 33.602 12.0324C33.4958 12.0324 33.4152 12.0039 33.3601 11.9469C33.307 11.8879 33.2805 11.8142 33.2805 11.7257Z" stroke="white" stroke-width="0.8" mask="url(#path-1-outside-1)"/>
</g>
</svg>
